<svg xmlns="http://www.w3.org/2000/svg" width="216" height="35.97" viewBox="0 0 216 35.97">
  <defs>
    <style>
      .cls-1 {
        fill: #fff;
        fill-rule: evenodd;
      }
    </style>
  </defs>
  <path id="logo_wh.svg" class="cls-1" d="M59.023,2312.63a3.848,3.848,0,0,1-2.086.45,6.7,6.7,0,0,1-2.273-.4,6.4,6.4,0,0,1-1.908-1.01l-0.1-.08-0.909,2.06,0.056,0.05a6.109,6.109,0,0,0,2.232,1.16,9.734,9.734,0,0,0,2.9.43,7.212,7.212,0,0,0,2.906-.53,4.01,4.01,0,0,0,1.8-1.43,3.577,3.577,0,0,0,.6-2.01,3.048,3.048,0,0,0-.677-2.08,4.033,4.033,0,0,0-1.609-1.13,17.035,17.035,0,0,0-2.364-.71c-0.694-.17-1.247-0.33-1.645-0.46a2.671,2.671,0,0,1-.967-0.54,1.065,1.065,0,0,1-.361-0.84,1.4,1.4,0,0,1,.646-1.2,3.61,3.61,0,0,1,2.047-.46,6.459,6.459,0,0,1,1.755.25,7.26,7.26,0,0,1,1.74.76l0.1,0.06,0.827-2.07-0.068-.05a6.891,6.891,0,0,0-2-.87,9.259,9.259,0,0,0-2.34-.3,7.151,7.151,0,0,0-2.9.53,4.051,4.051,0,0,0-1.788,1.45,3.609,3.609,0,0,0-.6,2.02,3.121,3.121,0,0,0,.677,2.1,3.965,3.965,0,0,0,1.6,1.14,21.522,21.522,0,0,0,2.391.71c0.695,0.17,1.249.33,1.646,0.46a2.689,2.689,0,0,1,.965.55,1.085,1.085,0,0,1,.362.85A1.305,1.305,0,0,1,59.023,2312.63Zm10.543-3.11h6.451v5.59H78.6v-13.24H76.017v5.38H69.566v-5.38H66.978v13.24h2.588v-5.59Zm17.452-7.65H84.431v13.24h2.588v-13.24Zm17.121,13.24-3-4.34a4.266,4.266,0,0,0,1.958-1.57,5.026,5.026,0,0,0,.048-5.12,4.37,4.37,0,0,0-1.945-1.64,7.109,7.109,0,0,0-2.953-.57h-5.39v13.24h2.588v-3.8h2.8c0.191,0,.339-0.01.447-0.02l2.623,3.82h2.816Zm-8.689-10.99h2.693a3.556,3.556,0,0,1,2.307.65,2.253,2.253,0,0,1,.772,1.84,2.3,2.3,0,0,1-.773,1.85,3.552,3.552,0,0,1-2.306.65H95.451v-4.99Zm19.9-2.25h-2.481l-5.877,13.24h2.682l1.268-3.02h6.3l1.286,3.02h2.719l-5.869-13.18Zm1.014,8.12h-4.528l2.256-5.34Zm13.361-1.87-3.71-6.25h-2.787l5.129,8.6v4.64h2.588v-4.68l5.111-8.56h-2.585Zm16.7-6.19-0.026-.06h-2.481l-5.876,13.24h2.682l1.267-3.02h6.3l1.287,3.02h2.718Zm0.988,8.06h-4.528l2.255-5.34Zm20.46-8.12H165.3v8.64l-6.914-8.6-0.03-.04h-2.113v13.24h2.57v-8.65l6.914,8.61,0.03,0.04h2.113v-13.24Zm12.31,0H177.7l-5.877,13.24H174.5l1.268-3.02h6.3l1.285,3.02h2.719l-5.869-13.18Zm1.014,8.12h-4.528l2.256-5.34Zm12.719-5.42a4.939,4.939,0,0,1,2.368-.56,4.718,4.718,0,0,1,3.475,1.46l0.07,0.07,1.645-1.63-0.062-.07a6,6,0,0,0-2.261-1.61,7.909,7.909,0,0,0-2.976-.55,7.511,7.511,0,0,0-3.621.88,6.472,6.472,0,0,0-2.528,2.43,7.139,7.139,0,0,0,0,6.99,6.486,6.486,0,0,0,2.518,2.43,7.312,7.312,0,0,0,3.594.88,8.835,8.835,0,0,0,2.749-.43,7.32,7.32,0,0,0,2.347-1.25l0.037-.03v-5.34h-2.459v4.1a5.034,5.034,0,0,1-2.546.63,4.69,4.69,0,0,1-2.349-.59,4.147,4.147,0,0,1-1.615-1.6,4.514,4.514,0,0,1-.584-2.29,4.611,4.611,0,0,1,.584-2.33A4.126,4.126,0,0,1,193.912,2304.57Zm15.457-2.7h-2.588v13.24h2.588v-13.24ZM57.791,2324.21H57.3l-6.063,13.24h0.643l1.8-3.93h7.735l1.8,3.93h0.643l-6.037-13.18Zm3.362,8.76H53.934l3.61-7.91Zm2.936,4.63H63.116l-1.8-3.93H53.771l-1.8,3.93H51l0.1-.21,6.1-13.33h0.686l0.067,0.15Zm-0.782-.3H63.62L57.7,2324.37h-0.3l-5.924,12.93H51.78l1.8-3.93h7.927Zm-1.919-4.18H53.7l3.844-8.42Zm-7.219-.31h6.75l-3.375-7.39Zm23.367-1.53a4.232,4.232,0,0,0,.849-2.68,4.022,4.022,0,0,0-1.377-3.24,5.735,5.735,0,0,0-3.775-1.15H68.779v13.24h0.567v-4.47h3.886a7.906,7.906,0,0,0,1.463-.12l3.263,4.59h0.706l-3.373-4.73A4.316,4.316,0,0,0,77.536,2331.28Zm0.282-2.68a3.525,3.525,0,0,1-1.168,2.83,5.119,5.119,0,0,1-3.38,1H69.346v-7.66h3.923a5.12,5.12,0,0,1,3.38,1A3.525,3.525,0,0,1,77.817,2328.6Zm1.139,9H77.881l-3.252-4.57a8.368,8.368,0,0,1-1.4.1H69.5v4.47H68.629v-13.54h4.6a5.84,5.84,0,0,1,3.87,1.19,4.151,4.151,0,0,1,1.431,3.35,4.343,4.343,0,0,1-.882,2.77h0a4.318,4.318,0,0,1-2.118,1.43Zm-0.922-.3H78.37l-3.327-4.67,0.206-.06a4.073,4.073,0,0,0,2.169-1.39h0a4.033,4.033,0,0,0,.816-2.58,3.874,3.874,0,0,0-1.323-3.12,5.574,5.574,0,0,0-3.679-1.11h-4.3v12.93H69.2v-4.47h4.036a7.594,7.594,0,0,0,1.435-.12l0.094-.01Zm-4.766-4.72H69.2v-7.96h4.073a5.282,5.282,0,0,1,3.477,1.03,4.161,4.161,0,0,1,0,5.89A5.226,5.226,0,0,1,73.268,2332.58Zm-3.773-.31h3.773a4.961,4.961,0,0,0,3.285-.96,3.852,3.852,0,0,0,0-5.42,4.963,4.963,0,0,0-3.285-.97H69.5v7.35Zm17.224-6.75a6.222,6.222,0,0,1,3.12-.81,5.651,5.651,0,0,1,4.083,1.54L94,2326.32l0.349-.41-0.065-.06a5.4,5.4,0,0,0-1.974-1.27,7.119,7.119,0,0,0-2.468-.42,6.778,6.778,0,0,0-3.411.87,6.4,6.4,0,0,0-2.407,2.39,7.067,7.067,0,0,0,0,6.82,6.359,6.359,0,0,0,2.407,2.4,7.11,7.11,0,0,0,5.87.43,5.387,5.387,0,0,0,1.983-1.27l0.065-.06L94,2335.32l-0.076.08a5.658,5.658,0,0,1-4.083,1.55,6.121,6.121,0,0,1-3.12-.81,5.853,5.853,0,0,1-2.2-2.2,6.394,6.394,0,0,1,0-6.21A5.943,5.943,0,0,1,86.72,2325.52Zm3.12,12.14a6.953,6.953,0,0,1-3.484-.89,6.5,6.5,0,0,1-2.463-2.45,7.235,7.235,0,0,1,0-6.98,6.535,6.535,0,0,1,2.464-2.44,6.951,6.951,0,0,1,3.484-.89,7.18,7.18,0,0,1,2.52.43,5.537,5.537,0,0,1,2.029,1.3l0.163,0.16-0.542.65-0.191-.19a5.51,5.51,0,0,0-3.979-1.49,6.03,6.03,0,0,0-3.046.78h0a5.779,5.779,0,0,0-2.148,2.15,6.244,6.244,0,0,0,0,6.06,5.716,5.716,0,0,0,2.148,2.15,5.947,5.947,0,0,0,3.046.79,5.525,5.525,0,0,0,3.979-1.51l0.191-.19,0.542,0.64-0.164.17a5.506,5.506,0,0,1-2.037,1.3A7,7,0,0,1,89.84,2337.66Zm0-13.35a6.7,6.7,0,0,0-3.338.85,6.2,6.2,0,0,0-2.352,2.34,6.92,6.92,0,0,0,0,6.67,6.18,6.18,0,0,0,2.351,2.33,6.6,6.6,0,0,0,3.338.85,6.856,6.856,0,0,0,2.407-.42,5.273,5.273,0,0,0,1.9-1.2l-0.156-.19a5.784,5.784,0,0,1-4.148,1.56,6.3,6.3,0,0,1-3.194-.82,6.044,6.044,0,0,1-2.259-2.27,6.544,6.544,0,0,1,0-6.36,6.082,6.082,0,0,1,2.259-2.26,6.3,6.3,0,0,1,3.194-.83,5.815,5.815,0,0,1,4.148,1.54l0.156-.18a5.268,5.268,0,0,0-1.887-1.19A6.841,6.841,0,0,0,89.84,2324.31Zm20.034,6.14h-9.169v-6.24h-0.567v13.24h0.567v-6.44h9.169v6.44h0.567v-13.24h-0.567v6.24Zm0.717,7.15h-0.866v-6.44h-8.871v6.44H99.988v-13.54h0.866v6.24h8.871v-6.24h0.866v13.54Zm-0.567-.3h0.268v-12.93h-0.268v6.23h-9.469v-6.23h-0.267v12.93h0.267v-6.44h9.469v6.44Zm7.676,0.15h0.567v-13.24H117.7v13.24Zm0.717,0.15h-0.866v-13.54h0.866v13.54Zm-0.567-.3h0.268v-12.93H117.85v12.93Zm5.306-12.53h4.777v12.68H128.5v-12.68h4.776v-0.56h-10.12v0.56Zm5.494,12.83h-0.867v-12.68h-4.777v-0.86h10.42v0.86H128.65v12.68Zm-0.568-.3h0.268v-12.68h4.776v-0.25h-9.82v0.25h4.776v12.68Zm10.65-6.29h7.092v-0.56h-7.092v-5.68h7.918v-0.56h-8.485v13.24h8.761v-0.55h-8.194v-5.89Zm8.344,6.59h-9.06v-13.54H146.8v0.86h-7.918v5.38h7.091v0.86h-7.091v5.58h8.194v0.86Zm-8.761-.3h8.461v-0.25h-8.193v-6.19h7.091v-0.26h-7.091v-5.98H146.5v-0.25h-8.185v12.93Zm16.91-11.78a6.22,6.22,0,0,1,3.119-.81,5.651,5.651,0,0,1,4.083,1.54l0.077,0.07,0.349-.41-0.065-.06a5.416,5.416,0,0,0-1.975-1.27,7.12,7.12,0,0,0-2.469-.42,6.777,6.777,0,0,0-3.41.87,6.385,6.385,0,0,0-2.407,2.39,7.061,7.061,0,0,0,0,6.82,6.34,6.34,0,0,0,2.407,2.4,7.109,7.109,0,0,0,5.87.43,5.393,5.393,0,0,0,1.984-1.27l0.065-.06-0.349-.42-0.077.08a5.657,5.657,0,0,1-4.083,1.55,6.119,6.119,0,0,1-3.119-.81,5.849,5.849,0,0,1-2.2-2.2,6.4,6.4,0,0,1,0-6.21A5.932,5.932,0,0,1,155.225,2325.52Zm3.119,12.14a6.951,6.951,0,0,1-3.483-.89,6.475,6.475,0,0,1-2.463-2.45,7.231,7.231,0,0,1,0-6.98,6.513,6.513,0,0,1,2.463-2.44,6.951,6.951,0,0,1,3.483-.89,7.182,7.182,0,0,1,2.521.43,5.543,5.543,0,0,1,2.029,1.3l0.163,0.16-0.542.65-0.191-.19a5.513,5.513,0,0,0-3.98-1.49,6.028,6.028,0,0,0-3.045.78h0a5.837,5.837,0,0,0-2.148,2.15,6.244,6.244,0,0,0,0,6.06,5.716,5.716,0,0,0,2.149,2.15,5.946,5.946,0,0,0,3.045.79,5.527,5.527,0,0,0,3.98-1.51l0.191-.19,0.542,0.64-0.163.17a5.517,5.517,0,0,1-2.037,1.3A7,7,0,0,1,158.344,2337.66Zm0-13.35a6.707,6.707,0,0,0-3.337.85,6.187,6.187,0,0,0-2.351,2.34,6.918,6.918,0,0,0,0,6.67,6.161,6.161,0,0,0,2.351,2.33,6.6,6.6,0,0,0,3.337.85,6.858,6.858,0,0,0,2.408-.42,5.276,5.276,0,0,0,1.9-1.2l-0.156-.19a5.788,5.788,0,0,1-4.149,1.56,6.293,6.293,0,0,1-3.193-.82,6.036,6.036,0,0,1-2.26-2.27,6.545,6.545,0,0,1,0-6.36,6.057,6.057,0,0,1,2.259-2.26h0a6.29,6.29,0,0,1,3.193-.83,5.819,5.819,0,0,1,4.149,1.54l0.156-.18a5.265,5.265,0,0,0-1.887-1.19A6.842,6.842,0,0,0,158.344,2324.31Zm7.929,0.46h4.777v12.68h0.567v-12.68h4.776v-0.56h-10.12v0.56Zm5.493,12.83H170.9v-12.68h-4.777v-0.86h10.42v0.86h-4.777v12.68Zm-0.567-.3h0.268v-12.68h4.777v-0.25h-9.821v0.25H171.2v12.68Zm25.994-12.27a7.122,7.122,0,0,0-6.822,0,6.392,6.392,0,0,0-2.407,2.39,7.068,7.068,0,0,0,0,6.82,6.354,6.354,0,0,0,2.407,2.4,7.122,7.122,0,0,0,6.822,0,6.361,6.361,0,0,0,2.407-2.4,7.068,7.068,0,0,0,0-6.82A6.4,6.4,0,0,0,197.193,2325.03Zm-3.411,11.92a6.216,6.216,0,0,1-3.12-.8,5.76,5.76,0,0,1-2.2-2.19,6.475,6.475,0,0,1,0-6.25,5.849,5.849,0,0,1,2.2-2.2,6.484,6.484,0,0,1,6.24,0,5.842,5.842,0,0,1,2.2,2.2,6.475,6.475,0,0,1,0,6.25,5.753,5.753,0,0,1-2.2,2.19A6.214,6.214,0,0,1,193.782,2336.95Zm0,0.71a6.952,6.952,0,0,1-3.484-.89,6.475,6.475,0,0,1-2.463-2.45,7.238,7.238,0,0,1,0-6.98,6.513,6.513,0,0,1,2.463-2.44,7.264,7.264,0,0,1,6.968,0h0a6.551,6.551,0,0,1,2.464,2.44,7.238,7.238,0,0,1,0,6.98,6.513,6.513,0,0,1-2.464,2.45A6.952,6.952,0,0,1,193.782,2337.66Zm0-13.35a6.711,6.711,0,0,0-3.338.85,6.248,6.248,0,0,0-2.35,2.34,6.918,6.918,0,0,0,0,6.67,6.158,6.158,0,0,0,2.35,2.33,6.977,6.977,0,0,0,6.675,0,6.184,6.184,0,0,0,2.352-2.33,6.918,6.918,0,0,0,0-6.67,6.2,6.2,0,0,0-2.352-2.34h0A6.7,6.7,0,0,0,193.782,2324.31Zm0,12.79a6.388,6.388,0,0,1-3.193-.81,6.01,6.01,0,0,1-2.26-2.26,6.626,6.626,0,0,1,0-6.4,5.976,5.976,0,0,1,2.26-2.25,6.629,6.629,0,0,1,6.387,0,5.983,5.983,0,0,1,2.26,2.25,6.626,6.626,0,0,1,0,6.4,6.017,6.017,0,0,1-2.26,2.26A6.392,6.392,0,0,1,193.782,2337.1Zm0-12.23a6.13,6.13,0,0,0-3.046.77,5.707,5.707,0,0,0-2.148,2.15,6.305,6.305,0,0,0,0,6.09,5.618,5.618,0,0,0,2.148,2.14,6.339,6.339,0,0,0,6.093,0,5.615,5.615,0,0,0,2.147-2.14,6.305,6.305,0,0,0,0-6.09,5.7,5.7,0,0,0-2.147-2.15A6.134,6.134,0,0,0,193.782,2324.87Zm12.6,12.58h0.567v-6.07h7.091v-0.56h-7.091v-6.05h7.918v-0.56h-8.485v13.24Zm0.717,0.15h-0.867v-13.54h8.785v0.86h-7.918v5.75h7.091v0.86h-7.091v6.07Zm-0.567-.3h0.267v-6.07h7.092v-0.25h-7.092v-6.36h7.918v-0.25h-8.185v12.93Zm13.977,0.15h0.567v-6.07h7.092v-0.56h-7.092v-6.05h7.919v-0.56H220.5v13.24Zm0.717,0.15h-0.867v-13.54h8.785v0.86h-7.918v5.75h7.091v0.86h-7.091v6.07Zm-0.567-.3h0.267v-6.07h7.092v-0.25h-7.092v-6.36h7.919v-0.25h-8.186v12.93Zm13.977,0.15H235.2v-13.24h-0.568v13.24Zm0.717,0.15h-0.866v-13.54h0.866v13.54Zm-0.567-.3h0.268v-12.93h-0.268v12.93Zm9.893-11.78a6.217,6.217,0,0,1,3.119-.81,5.653,5.653,0,0,1,4.083,1.54l0.076,0.07,0.35-.41-0.066-.06a5.4,5.4,0,0,0-1.974-1.27,7.124,7.124,0,0,0-2.469-.42,6.781,6.781,0,0,0-3.411.87,6.4,6.4,0,0,0-2.407,2.39,7.068,7.068,0,0,0,0,6.82,6.361,6.361,0,0,0,2.407,2.4,7.111,7.111,0,0,0,5.871.43,5.389,5.389,0,0,0,1.983-1.27l0.066-.06-0.35-.42-0.076.08a5.657,5.657,0,0,1-4.083,1.55,6.116,6.116,0,0,1-3.119-.81,5.851,5.851,0,0,1-2.205-2.2,6.4,6.4,0,0,1,0-6.21A5.942,5.942,0,0,1,244.674,2325.52Zm3.119,12.14a6.952,6.952,0,0,1-3.484-.89,6.5,6.5,0,0,1-2.463-2.45,7.231,7.231,0,0,1,0-6.98,6.541,6.541,0,0,1,2.463-2.44,6.957,6.957,0,0,1,3.484-.89,7.19,7.19,0,0,1,2.521.43,5.531,5.531,0,0,1,2.028,1.3l0.163,0.16-0.542.65-0.19-.19a5.513,5.513,0,0,0-3.98-1.49,6.028,6.028,0,0,0-3.045.78h0a5.774,5.774,0,0,0-2.149,2.15,6.247,6.247,0,0,0,0,6.06,5.7,5.7,0,0,0,2.149,2.15,5.94,5.94,0,0,0,3.045.79,5.528,5.528,0,0,0,3.98-1.51l0.191-.19,0.542,0.64-0.164.17a5.509,5.509,0,0,1-2.037,1.3A6.991,6.991,0,0,1,247.793,2337.66Zm0-13.35a6.7,6.7,0,0,0-3.337.85,6.187,6.187,0,0,0-2.351,2.34,6.918,6.918,0,0,0,0,6.67,6.168,6.168,0,0,0,2.351,2.33,6.6,6.6,0,0,0,3.337.85,6.858,6.858,0,0,0,2.408-.42,5.264,5.264,0,0,0,1.9-1.2l-0.156-.19a5.784,5.784,0,0,1-4.148,1.56,6.3,6.3,0,0,1-3.194-.82,6.04,6.04,0,0,1-2.259-2.27,6.548,6.548,0,0,1,0-6.36,6.071,6.071,0,0,1,2.259-2.26h0a6.3,6.3,0,0,1,3.194-.83,5.815,5.815,0,0,1,4.148,1.54l0.156-.18a5.269,5.269,0,0,0-1.886-1.19A6.846,6.846,0,0,0,247.793,2324.31Zm10.865,12.59v-5.89h7.092v-0.56h-7.092v-5.68h7.919v-0.56h-8.485v13.24h8.76v-0.55h-8.194Zm8.344,0.7h-9.06v-13.54h8.784v0.86h-7.918v5.38H265.9v0.86h-7.091v5.58H267v0.86Zm-8.761-.3H266.7v-0.25h-8.193v-6.19H265.6v-0.26h-7.091v-5.98h7.918v-0.25h-8.186v12.93Z" transform="translate(-51 -2301.69)"/>
</svg>
