<svg xmlns="http://www.w3.org/2000/svg" width="216" height="35.969" viewBox="0 0 216 35.969">
  <defs>
    <style>
      .cls-1 {
        fill-rule: evenodd;
      }
    </style>
  </defs>
  <path id="logo_bk.svg" class="cls-1" d="M59.023,51.63a3.862,3.862,0,0,1-2.086.449,6.893,6.893,0,0,1-2.273-.395,6.4,6.4,0,0,1-1.908-1.017l-0.1-.081-0.909,2.068L51.8,52.7a6.1,6.1,0,0,0,2.232,1.156,9.826,9.826,0,0,0,2.9.432,7.185,7.185,0,0,0,2.906-.53,4.058,4.058,0,0,0,1.8-1.433,3.586,3.586,0,0,0,.6-2.012,3.059,3.059,0,0,0-.677-2.079,4.148,4.148,0,0,0-1.609-1.135,17.335,17.335,0,0,0-2.364-.7c-0.694-.172-1.247-0.328-1.645-0.463a2.746,2.746,0,0,1-.967-0.539,1.061,1.061,0,0,1-.361-0.837,1.391,1.391,0,0,1,.646-1.2A3.613,3.613,0,0,1,57.3,42.9a6.475,6.475,0,0,1,1.755.257,7.322,7.322,0,0,1,1.74.753l0.1,0.059L61.727,41.9l-0.068-.046a6.5,6.5,0,0,0-2-.87,9.278,9.278,0,0,0-2.34-.3,7.119,7.119,0,0,0-2.9.53,4.045,4.045,0,0,0-1.788,1.443,3.627,3.627,0,0,0-.6,2.02,3.123,3.123,0,0,0,.677,2.106,4.022,4.022,0,0,0,1.6,1.135,19.177,19.177,0,0,0,2.391.712c0.695,0.173,1.249.329,1.646,0.463a2.685,2.685,0,0,1,.965.547,1.089,1.089,0,0,1,.362.847A1.306,1.306,0,0,1,59.023,51.63ZM69.566,48.52h6.451v5.586H78.6V40.869H76.017v5.382H69.566V40.869H66.978V54.107h2.588V48.52Zm17.452-7.651H84.431V54.107h2.588V40.869ZM104.14,54.107l-3-4.338A4.29,4.29,0,0,0,103.1,48.2a4.578,4.578,0,0,0,.725-2.589,4.65,4.65,0,0,0-.677-2.531,4.367,4.367,0,0,0-1.945-1.639,7.166,7.166,0,0,0-2.953-.568h-5.39V54.107h2.588v-3.8h2.8c0.191,0,.339,0,0.447-0.013l2.623,3.812h2.816ZM95.451,43.12h2.693a3.556,3.556,0,0,1,2.307.648,2.264,2.264,0,0,1,.772,1.84,2.291,2.291,0,0,1-.773,1.85,3.523,3.523,0,0,1-2.306.656H95.451V43.12Zm19.9-2.251h-2.481L106.99,54.107h2.682l1.268-3.017h6.3l1.286,3.017h2.719l-5.869-13.177Zm1.014,8.119h-4.528l2.256-5.341Zm13.361-1.864-3.71-6.256h-2.787l5.129,8.6v4.635h2.588V49.434l5.111-8.565h-2.585Zm16.7-6.2-0.026-.06h-2.481l-5.876,13.237h2.682l1.267-3.017h6.3l1.287,3.017h2.718Zm0.988,8.059h-4.528l2.255-5.341Zm20.46-8.119H165.3v8.643l-6.914-8.606-0.03-.037h-2.113V54.107h2.57V45.463l6.914,8.606,0.03,0.037h2.113V40.869Zm12.31,0H177.7l-5.877,13.237H174.5l1.268-3.017h6.3l1.285,3.017h2.719l-5.869-13.177Zm1.014,8.119h-4.528l2.256-5.341Zm12.719-5.415a4.886,4.886,0,0,1,2.368-.565,4.723,4.723,0,0,1,3.475,1.46l0.07,0.071,1.645-1.627-0.062-.072a5.9,5.9,0,0,0-2.261-1.61,7.84,7.84,0,0,0-2.976-.548,7.479,7.479,0,0,0-3.621.878,6.5,6.5,0,0,0-2.528,2.43,7.145,7.145,0,0,0,0,6.993,6.511,6.511,0,0,0,2.518,2.43,7.392,7.392,0,0,0,3.594.878,8.9,8.9,0,0,0,2.749-.433,7.274,7.274,0,0,0,2.347-1.247l0.037-.03V47.238h-2.459v4.1a5.064,5.064,0,0,1-2.546.628,4.721,4.721,0,0,1-2.349-.583,4.224,4.224,0,0,1-1.615-1.6,4.558,4.558,0,0,1-.584-2.3,4.635,4.635,0,0,1,.584-2.333A4.1,4.1,0,0,1,193.912,43.573Zm15.457-2.7h-2.588V54.107h2.588V40.869ZM57.791,63.214H57.3L51.233,76.451h0.643l1.8-3.929h7.735l1.8,3.929h0.643L57.818,63.273Zm3.362,8.752H53.934l3.61-7.907ZM64.089,76.6H63.116l-1.8-3.93H53.771l-1.8,3.93H51l0.1-.216,6.1-13.325h0.686l0.067,0.146Zm-0.782-.3H63.62L57.7,63.367h-0.3L51.468,76.3H51.78l1.8-3.93h7.927Zm-1.919-4.182H53.7l3.844-8.42Zm-7.219-.3h6.75l-3.375-7.392Zm23.367-1.536a4.22,4.22,0,0,0,.849-2.679,4.011,4.011,0,0,0-1.377-3.234,5.718,5.718,0,0,0-3.775-1.15H68.779V76.451h0.567V71.982h3.886a7.944,7.944,0,0,0,1.463-.12l3.263,4.589h0.706L75.29,71.718A4.262,4.262,0,0,0,77.536,70.278ZM77.817,67.6a3.523,3.523,0,0,1-1.168,2.828,5.1,5.1,0,0,1-3.38,1H69.346V63.771h3.923a5.1,5.1,0,0,1,3.38,1A3.525,3.525,0,0,1,77.817,67.6ZM78.956,76.6H77.881l-3.252-4.576a8.237,8.237,0,0,1-1.4.107H69.5V76.6H68.629V63.063h4.6a5.863,5.863,0,0,1,3.87,1.185A4.158,4.158,0,0,1,78.534,67.6a4.369,4.369,0,0,1-.882,2.774h0A4.346,4.346,0,0,1,75.534,71.8Zm-0.922-.3H78.37l-3.327-4.669,0.206-.059a4.114,4.114,0,0,0,2.169-1.388h0a4.067,4.067,0,0,0,.816-2.585,3.869,3.869,0,0,0-1.323-3.118,5.58,5.58,0,0,0-3.679-1.113h-4.3V76.3H69.2V71.831h4.036a7.753,7.753,0,0,0,1.435-.118l0.094-.018Zm-4.766-4.721H69.2V63.618h4.073a5.239,5.239,0,0,1,3.477,1.037,4.159,4.159,0,0,1,0,5.888A5.244,5.244,0,0,1,73.268,71.579Zm-3.773-.3h3.773a4.959,4.959,0,0,0,3.285-.965,3.854,3.854,0,0,0,0-5.422,4.955,4.955,0,0,0-3.285-.966H69.5v7.352ZM86.72,64.522a6.164,6.164,0,0,1,3.12-.807,5.65,5.65,0,0,1,4.083,1.536L94,65.325l0.349-.414-0.065-.066a5.37,5.37,0,0,0-1.974-1.261,7.065,7.065,0,0,0-2.468-.425,6.808,6.808,0,0,0-3.411.869,6.384,6.384,0,0,0-2.407,2.393,7.074,7.074,0,0,0,0,6.824,6.38,6.38,0,0,0,2.407,2.393,6.809,6.809,0,0,0,3.411.87,6.963,6.963,0,0,0,2.459-.435A5.457,5.457,0,0,0,94.282,74.8l0.065-.067L94,74.323l-0.076.074a5.654,5.654,0,0,1-4.083,1.555,6.167,6.167,0,0,1-3.12-.806,5.9,5.9,0,0,1-2.2-2.207,6.395,6.395,0,0,1,0-6.21A5.9,5.9,0,0,1,86.72,64.522Zm3.12,12.138a6.953,6.953,0,0,1-3.484-.889,6.523,6.523,0,0,1-2.463-2.449,7.227,7.227,0,0,1,0-6.976A6.523,6.523,0,0,1,86.356,63.9a6.95,6.95,0,0,1,3.484-.889,7.216,7.216,0,0,1,2.52.436,5.518,5.518,0,0,1,2.029,1.3L94.551,64.9l-0.542.641-0.191-.185a5.509,5.509,0,0,0-3.979-1.493,6.007,6.007,0,0,0-3.046.787h0A5.741,5.741,0,0,0,84.645,66.8a6.241,6.241,0,0,0,0,6.058,5.749,5.749,0,0,0,2.148,2.15,6.016,6.016,0,0,0,3.046.787,5.51,5.51,0,0,0,3.979-1.513L94.01,74.1l0.542,0.639-0.164.166a5.6,5.6,0,0,1-2.037,1.305A7.107,7.107,0,0,1,89.84,76.659Zm0-13.349a6.661,6.661,0,0,0-3.338.85A6.237,6.237,0,0,0,84.151,66.5a6.924,6.924,0,0,0,0,6.672A6.227,6.227,0,0,0,86.5,75.5a6.655,6.655,0,0,0,3.338.85,6.8,6.8,0,0,0,2.407-.425,5.311,5.311,0,0,0,1.9-1.2l-0.156-.185A5.8,5.8,0,0,1,89.84,76.1a6.323,6.323,0,0,1-3.194-.827,6.056,6.056,0,0,1-2.259-2.263,6.549,6.549,0,0,1,0-6.362,6.056,6.056,0,0,1,2.259-2.263,6.319,6.319,0,0,1,3.194-.826A5.8,5.8,0,0,1,93.987,65.1l0.156-.185a5.249,5.249,0,0,0-1.887-1.193A6.91,6.91,0,0,0,89.84,63.311Zm20.034,6.142h-9.169V63.214h-0.567V76.451h0.567V70.009h9.169v6.442h0.567V63.214h-0.567v6.238Zm0.717,7.152h-0.866V70.16h-8.871V76.6H99.988V63.063h0.866V69.3h8.871V63.063h0.866V76.6Zm-0.567-.3h0.268V63.367h-0.268V69.6h-9.469V63.367h-0.267V76.3h0.267V69.856h9.469V76.3Zm7.676,0.151h0.567V63.214H117.7V76.451Zm0.717,0.153h-0.866V63.063h0.866V76.6Zm-0.567-.3h0.268V63.367H117.85V76.3Zm5.306-12.529h4.777V76.451H128.5V63.771h4.776V63.214h-10.12v0.556ZM128.65,76.6h-0.867V63.922h-4.777v-0.86h10.42v0.86H128.65V76.6Zm-0.568-.3h0.268V63.618h4.776V63.367h-9.82v0.251h4.776V76.3Zm10.65-6.291h7.092V69.452h-7.092V63.771h7.918V63.214h-8.485V76.451h8.761V75.895h-8.194V70.009Zm8.344,6.6h-9.06V63.063H146.8v0.86h-7.918V69.3h7.091v0.86h-7.091v5.583h8.194V76.6Zm-8.761-.3h8.461V76.048h-8.193V69.856h7.091V69.6h-7.091V63.618H146.5V63.367h-8.185V76.3Zm16.91-11.778a6.162,6.162,0,0,1,3.119-.807,5.651,5.651,0,0,1,4.083,1.536l0.077,0.074,0.349-.414-0.065-.066a5.382,5.382,0,0,0-1.975-1.261,7.066,7.066,0,0,0-2.469-.425,6.808,6.808,0,0,0-3.41.869,6.373,6.373,0,0,0-2.407,2.393,7.068,7.068,0,0,0,0,6.824,6.369,6.369,0,0,0,2.407,2.393,6.808,6.808,0,0,0,3.41.87,6.965,6.965,0,0,0,2.46-.435,5.464,5.464,0,0,0,1.984-1.271l0.065-.067-0.349-.412-0.077.074a5.654,5.654,0,0,1-4.083,1.555,6.165,6.165,0,0,1-3.119-.806,5.894,5.894,0,0,1-2.2-2.207,6.4,6.4,0,0,1,0-6.21A5.889,5.889,0,0,1,155.225,64.522Zm3.119,12.138a6.951,6.951,0,0,1-3.483-.889,6.517,6.517,0,0,1-2.463-2.449,7.223,7.223,0,0,1,0-6.976,6.523,6.523,0,0,1,2.463-2.449,6.949,6.949,0,0,1,3.483-.889,7.218,7.218,0,0,1,2.521.436,5.525,5.525,0,0,1,2.029,1.3l0.163,0.166-0.542.641-0.191-.185a5.512,5.512,0,0,0-3.98-1.493,6,6,0,0,0-3.045.787h0a5.74,5.74,0,0,0-2.148,2.151,6.24,6.24,0,0,0,0,6.058,5.75,5.75,0,0,0,2.149,2.15,6.015,6.015,0,0,0,3.045.787,5.511,5.511,0,0,0,3.98-1.513l0.191-.182,0.542,0.639-0.163.166a5.607,5.607,0,0,1-2.037,1.305A7.116,7.116,0,0,1,158.344,76.659Zm0-13.349a6.663,6.663,0,0,0-3.337.85,6.241,6.241,0,0,0-2.351,2.336,6.919,6.919,0,0,0,0,6.671,6.224,6.224,0,0,0,2.351,2.337,6.655,6.655,0,0,0,3.337.85,6.8,6.8,0,0,0,2.408-.425,5.314,5.314,0,0,0,1.9-1.2l-0.156-.185a5.807,5.807,0,0,1-4.149,1.561,6.319,6.319,0,0,1-3.193-.827,6.048,6.048,0,0,1-2.26-2.263,6.55,6.55,0,0,1,0-6.362,6.043,6.043,0,0,1,2.259-2.263h0a6.314,6.314,0,0,1,3.193-.826,5.807,5.807,0,0,1,4.149,1.542l0.156-.185a5.246,5.246,0,0,0-1.887-1.193A6.911,6.911,0,0,0,158.344,63.311Zm7.929,0.46h4.777V76.451h0.567V63.771h4.776V63.214h-10.12v0.556ZM171.766,76.6H170.9V63.922h-4.777v-0.86h10.42v0.86h-4.777V76.6Zm-0.567-.3h0.268V63.618h4.777V63.367h-9.821v0.251H171.2V76.3Zm25.994-12.272a7.126,7.126,0,0,0-6.822,0,6.381,6.381,0,0,0-2.407,2.393,7.075,7.075,0,0,0,0,6.824,6.383,6.383,0,0,0,2.407,2.393,7.125,7.125,0,0,0,6.822,0,6.383,6.383,0,0,0,2.407-2.393,7.075,7.075,0,0,0,0-6.824A6.385,6.385,0,0,0,197.193,64.028Zm-3.411,11.923a6.223,6.223,0,0,1-3.12-.8,5.843,5.843,0,0,1-2.2-2.2,6.47,6.47,0,0,1,0-6.248,5.838,5.838,0,0,1,2.2-2.2,6.506,6.506,0,0,1,6.24,0,5.831,5.831,0,0,1,2.2,2.2,6.47,6.47,0,0,1,0,6.248,5.838,5.838,0,0,1-2.2,2.2A6.221,6.221,0,0,1,193.782,75.951Zm0,0.708a6.952,6.952,0,0,1-3.484-.889,6.517,6.517,0,0,1-2.463-2.449,7.23,7.23,0,0,1,0-6.976A6.523,6.523,0,0,1,190.3,63.9a7.268,7.268,0,0,1,6.968,0h0a6.544,6.544,0,0,1,2.464,2.448,7.232,7.232,0,0,1,0,6.977,6.534,6.534,0,0,1-2.464,2.449A6.952,6.952,0,0,1,193.782,76.659Zm0-13.349a6.667,6.667,0,0,0-3.338.85,6.24,6.24,0,0,0-2.35,2.336,6.919,6.919,0,0,0,0,6.671,6.221,6.221,0,0,0,2.35,2.337,6.974,6.974,0,0,0,6.675,0,6.219,6.219,0,0,0,2.352-2.337,6.919,6.919,0,0,0,0-6.671,6.231,6.231,0,0,0-2.352-2.336h0A6.661,6.661,0,0,0,193.782,63.311Zm0,12.793a6.378,6.378,0,0,1-3.193-.817,5.99,5.99,0,0,1-2.26-2.253,6.626,6.626,0,0,1,0-6.4,6,6,0,0,1,2.26-2.254,6.656,6.656,0,0,1,6.387,0,6,6,0,0,1,2.26,2.254,6.626,6.626,0,0,1,0,6.4,6,6,0,0,1-2.26,2.253A6.382,6.382,0,0,1,193.782,76.1Zm0-12.237a6.074,6.074,0,0,0-3.046.777,5.7,5.7,0,0,0-2.148,2.142,6.316,6.316,0,0,0,0,6.1,5.689,5.689,0,0,0,2.148,2.141,6.357,6.357,0,0,0,6.093,0,5.687,5.687,0,0,0,2.147-2.141,6.316,6.316,0,0,0,0-6.1,5.692,5.692,0,0,0-2.147-2.142A6.078,6.078,0,0,0,193.782,63.867Zm12.6,12.584h0.567v-6.07h7.091V69.825h-7.091V63.771h7.918V63.214h-8.485V76.451Zm0.717,0.153h-0.867V63.063h8.785v0.86h-7.918v5.75h7.091v0.861h-7.091V76.6Zm-0.567-.3h0.267V70.229h7.092V69.977h-7.092V63.618h7.918V63.367h-8.185V76.3ZM220.5,76.451h0.567v-6.07h7.092V69.825h-7.092V63.771h7.919V63.214H220.5V76.451Zm0.717,0.153h-0.867V63.063h8.785v0.86h-7.918v5.75h7.091v0.861h-7.091V76.6Zm-0.567-.3h0.267V70.229h7.092V69.977h-7.092V63.618h7.919V63.367h-8.186V76.3Zm13.977,0.151H235.2V63.214h-0.568V76.451Zm0.717,0.153h-0.866V63.063h0.866V76.6Zm-0.567-.3h0.268V63.367h-0.268V76.3Zm9.893-11.778a6.159,6.159,0,0,1,3.119-.807,5.653,5.653,0,0,1,4.083,1.536l0.076,0.074,0.35-.414-0.066-.066a5.37,5.37,0,0,0-1.974-1.261,7.07,7.07,0,0,0-2.469-.425,6.811,6.811,0,0,0-3.411.869,6.385,6.385,0,0,0-2.407,2.393,7.075,7.075,0,0,0,0,6.824,6.386,6.386,0,0,0,2.407,2.393,6.812,6.812,0,0,0,3.411.87,6.965,6.965,0,0,0,2.46-.435,5.46,5.46,0,0,0,1.983-1.271l0.066-.067-0.35-.412-0.076.074a5.654,5.654,0,0,1-4.083,1.555,6.163,6.163,0,0,1-3.119-.806,5.9,5.9,0,0,1-2.205-2.207,6.4,6.4,0,0,1,0-6.21A5.9,5.9,0,0,1,244.674,64.522Zm3.119,12.138a6.952,6.952,0,0,1-3.484-.889,6.517,6.517,0,0,1-2.463-2.449,7.223,7.223,0,0,1,0-6.976,6.53,6.53,0,0,1,2.463-2.449,6.956,6.956,0,0,1,3.484-.889,7.226,7.226,0,0,1,2.521.436,5.513,5.513,0,0,1,2.028,1.3l0.163,0.166-0.542.641-0.19-.185a5.512,5.512,0,0,0-3.98-1.493,6,6,0,0,0-3.045.787h0A5.736,5.736,0,0,0,242.6,66.8a6.243,6.243,0,0,0,0,6.058,5.735,5.735,0,0,0,2.149,2.15,6.009,6.009,0,0,0,3.045.787,5.513,5.513,0,0,0,3.98-1.513l0.191-.182,0.542,0.639-0.164.166a5.6,5.6,0,0,1-2.037,1.305A7.1,7.1,0,0,1,247.793,76.659Zm0-13.349a6.661,6.661,0,0,0-3.337.85,6.227,6.227,0,0,0-2.351,2.336,6.921,6.921,0,0,0,0,6.672,6.215,6.215,0,0,0,2.351,2.336,6.652,6.652,0,0,0,3.337.85,6.8,6.8,0,0,0,2.408-.425,5.3,5.3,0,0,0,1.9-1.2l-0.156-.185a5.8,5.8,0,0,1-4.148,1.561,6.326,6.326,0,0,1-3.194-.827,6.053,6.053,0,0,1-2.259-2.263,6.553,6.553,0,0,1,0-6.362,6.046,6.046,0,0,1,2.259-2.263h0a6.321,6.321,0,0,1,3.194-.826,5.8,5.8,0,0,1,4.148,1.542l0.156-.185a5.251,5.251,0,0,0-1.886-1.193A6.915,6.915,0,0,0,247.793,63.311Zm10.865,12.584V70.009h7.092V69.452h-7.092V63.771h7.919V63.214h-8.485V76.451h8.76V75.895h-8.194ZM267,76.6h-9.06V63.063h8.784v0.86h-7.918V69.3H265.9v0.86h-7.091v5.583H267V76.6Zm-8.761-.3H266.7V76.048h-8.193V69.856H265.6V69.6h-7.091V63.618h7.918V63.367h-8.186V76.3Z" transform="translate(-51 -40.688)"/>
</svg>
