<svg xmlns="http://www.w3.org/2000/svg" width="211.01" height="35.84" viewBox="0 0 211.01 35.84"><g id="bdb4d28a-8a17-4c78-a9ab-564c72cac2b0" data-name="Layer 2"><g id="b45764cd-2a87-4d37-a43e-210483f51913" data-name="4"><g style="isolation:isolate"><path d="M.47,11.45l.81-1.82A7,7,0,0,0,5.44,11c2,0,2.79-.7,2.79-1.64C8.23,6.66.74,8.45.74,3.76.74,1.73,2.36,0,5.82,0A8,8,0,0,1,10,1.12L9.27,2.94A6.93,6.93,0,0,0,5.8,2C3.85,2,3.06,2.7,3.06,3.66c0,2.68,7.47.93,7.47,5.56,0,2-1.64,3.74-5.09,3.74A8.12,8.12,0,0,1,.47,11.45Z"/><path d="M26.57.18v12.6H24.23V7.38H17.71v5.4H15.37V.18h2.34v5.2h6.52V.18Z"/><path d="M32.47.18h2.34v12.6H32.47Z"/><path d="M49,12.78,46.41,9.09a4.1,4.1,0,0,1-.49,0H43.07v3.67H40.73V.18h5.19c3.31,0,5.37,1.69,5.37,4.48a4,4,0,0,1-2.69,4l2.9,4.14ZM45.81,2.16H43.07v5h2.74c2,0,3.12-.93,3.12-2.52S47.86,2.16,45.81,2.16Z"/><path d="M64.59,9.87H58.28L57,12.78H54.63L60.3.18h2.31l5.69,12.6H65.85ZM63.81,8,61.44,2.52,59.08,8Z"/><path d="M77.85,8.34v4.44H75.51V8.37l-5-8.19h2.5l3.69,6.14L80.48.18h2.3Z"/><path d="M95,9.87H88.7l-1.24,2.91H85.05L90.72.18H93l5.69,12.6H96.27ZM94.23,8,91.85,2.52,89.5,8Z"/><path d="M114,.18v12.6h-1.92l-7-8.53v8.53h-2.33V.18h1.93l6.95,8.53V.18Z"/><path d="M128.11,9.87h-6.3l-1.25,2.91h-2.41L123.82.18h2.31l5.69,12.6h-2.45ZM127.33,8,125,2.52,122.6,8Z"/><path d="M144.54,6.34h2.22v5a8,8,0,0,1-4.94,1.6A6.42,6.42,0,0,1,135,6.48C135,2.72,137.92,0,141.86,0a6.51,6.51,0,0,1,5.06,2.05l-1.48,1.44A4.67,4.67,0,0,0,142,2.05a4.31,4.31,0,0,0-4.58,4.43A4.34,4.34,0,0,0,142,10.91a5.06,5.06,0,0,0,2.59-.65Z"/><path d="M152.35.18h2.34v12.6h-2.34Z"/><path d="M9.88,32H2.18L.41,35.78H0l5.85-12.6h.36l5.85,12.6h-.41Zm-.16-.35L6,23.67l-3.69,8Z"/><path d="M26.08,35.78l-3.2-4.44a8,8,0,0,1-1.48.12H17.5v4.32h-.36V23.18H21.4A5.58,5.58,0,0,1,25,24.27a3.77,3.77,0,0,1,1.31,3.05,3.92,3.92,0,0,1-.81,2.53,4.1,4.1,0,0,1-2.28,1.4l3.27,4.53Zm-4.64-4.66a5.09,5.09,0,0,0,3.37-1A3.45,3.45,0,0,0,26,27.32a3.44,3.44,0,0,0-1.18-2.8,5.09,5.09,0,0,0-3.37-1H17.5v7.59Z"/><path d="M34.38,35a6,6,0,0,1-2.32-2.28,6.62,6.62,0,0,1,0-6.49A6,6,0,0,1,34.38,24a6.62,6.62,0,0,1,3.29-.83,6.89,6.89,0,0,1,2.39.41A5.11,5.11,0,0,1,42,24.73l-.22.25a5.67,5.67,0,0,0-4.07-1.51,6.24,6.24,0,0,0-3.1.79,6,6,0,0,0-2.2,2.17,6.23,6.23,0,0,0,0,6.11,5.85,5.85,0,0,0,2.2,2.16,6.14,6.14,0,0,0,3.1.8A5.65,5.65,0,0,0,41.74,34l.22.25a5.17,5.17,0,0,1-1.91,1.2,6.7,6.7,0,0,1-2.38.42A6.62,6.62,0,0,1,34.38,35Z"/><path d="M57.76,23.18v12.6H57.4V29.56H48.22v6.22h-.36V23.18h.36v6H57.4v-6Z"/><path d="M65.07,23.18h.36v12.6h-.36Z"/><path d="M75.1,23.53H70.42v-.35h9.72v.35H75.46V35.78H75.1Z"/><path d="M93.51,35.44v.34H85.12V23.18h8.12v.35H85.48v5.68h7v.35h-7v5.88Z"/><path d="M101.5,35a6,6,0,0,1-2.32-2.28,6.62,6.62,0,0,1,0-6.49A6,6,0,0,1,101.5,24a6.62,6.62,0,0,1,3.29-.83,6.89,6.89,0,0,1,2.39.41,5.11,5.11,0,0,1,1.9,1.19l-.22.25a5.67,5.67,0,0,0-4.07-1.51,6.24,6.24,0,0,0-3.1.79,6,6,0,0,0-2.2,2.17,6.23,6.23,0,0,0,0,6.11,5.85,5.85,0,0,0,2.2,2.16,6.14,6.14,0,0,0,3.1.8A5.65,5.65,0,0,0,108.86,34l.22.25a5.09,5.09,0,0,1-1.91,1.2,6.7,6.7,0,0,1-2.38.42A6.62,6.62,0,0,1,101.5,35Z"/><path d="M117.34,23.53h-4.68v-.35h9.72v.35H117.7V35.78h-.36Z"/><path d="M136.22,35a6,6,0,0,1-2.32-2.28,6.62,6.62,0,0,1,0-6.49A6,6,0,0,1,136.22,24a7,7,0,0,1,6.59,0,6,6,0,0,1,2.32,2.28,6.62,6.62,0,0,1,0,6.49A6,6,0,0,1,142.81,35a7,7,0,0,1-6.59,0Zm6.4-.3a5.78,5.78,0,0,0,2.2-2.16,6.27,6.27,0,0,0,0-6.13,5.87,5.87,0,0,0-2.2-2.17,6.57,6.57,0,0,0-6.21,0,5.78,5.78,0,0,0-2.19,2.17,6.2,6.2,0,0,0,0,6.13,5.68,5.68,0,0,0,2.19,2.16,6.5,6.5,0,0,0,6.21,0Z"/><path d="M152.31,23.53v6h6.95v.35h-6.95v5.86H152V23.18h8.12v.35Z"/><path d="M166.16,23.53v6h6.94v.35h-6.94v5.86h-.36V23.18h8.12v.35Z"/><path d="M179.64,23.18H180v12.6h-.36Z"/><path d="M189.14,35a6,6,0,0,1-2.32-2.28,6.62,6.62,0,0,1,0-6.49A6,6,0,0,1,189.14,24a6.66,6.66,0,0,1,3.3-.83,6.88,6.88,0,0,1,2.38.41,5.11,5.11,0,0,1,1.9,1.19l-.22.25a5.66,5.66,0,0,0-4.06-1.51,6.28,6.28,0,0,0-3.11.79,5.85,5.85,0,0,0-2.19,2.17,6.17,6.17,0,0,0,0,6.11,5.75,5.75,0,0,0,2.19,2.16,6.18,6.18,0,0,0,3.11.8A5.63,5.63,0,0,0,196.5,34l.22.25a5.09,5.09,0,0,1-1.91,1.2,6.94,6.94,0,0,1-5.67-.41Z"/><path d="M211,35.44v.34h-8.39V23.18h8.12v.35H203v5.68h7v.35h-7v5.88Z"/></g></g></g></svg>