<svg xmlns="http://www.w3.org/2000/svg" width="211.38" height="35.98" viewBox="0 0 211.38 35.98"><g id="a04d90cb-202e-4281-9ac3-135e999c71c2" data-name="Layer 2"><g id="b680ff74-7793-41f7-bf31-7c0f44f172f0" data-name="4"><g style="isolation:isolate"><path d="M.69,11.45,1.5,9.63A7,7,0,0,0,5.66,11c2,0,2.79-.7,2.79-1.64C8.45,6.66,1,8.45,1,3.76,1,1.73,2.58,0,6,0a8,8,0,0,1,4.19,1.12L9.49,2.94A6.93,6.93,0,0,0,6,2C4.08,2,3.28,2.7,3.28,3.66c0,2.68,7.48.93,7.48,5.56,0,2-1.64,3.74-5.1,3.74A8.12,8.12,0,0,1,.69,11.45Z"/><path d="M26.79.18v12.6H24.45V7.38H17.94v5.4H15.59V.18h2.35v5.2h6.51V.18Z"/><path d="M32.69.18H35v12.6H32.69Z"/><path d="M49.2,12.78,46.63,9.09a4,4,0,0,1-.49,0H43.3v3.67H41V.18h5.18c3.31,0,5.37,1.69,5.37,4.48a4,4,0,0,1-2.69,4l2.9,4.14ZM46,2.16H43.3v5H46c2.06,0,3.12-.93,3.12-2.52S48.09,2.16,46,2.16Z"/><path d="M64.81,9.87h-6.3l-1.25,2.91H54.85L60.52.18h2.31l5.69,12.6H66.07ZM64,8,61.66,2.52,59.3,8Z"/><path d="M78.07,8.34v4.44H75.73V8.37l-5-8.19h2.5L77,6.32,80.7.18H83Z"/><path d="M95.23,9.87h-6.3l-1.25,2.91H85.27L90.94.18h2.31l5.69,12.6H96.49ZM94.45,8,92.08,2.52,89.72,8Z"/><path d="M114.26.18v12.6h-1.93l-7-8.53v8.53h-2.32V.18H105l7,8.53V.18Z"/><path d="M128.33,9.87H122l-1.24,2.91h-2.42L124,.18h2.31L132,12.78h-2.45ZM127.56,8l-2.38-5.51L122.82,8Z"/><path d="M144.76,6.34H147v5A8,8,0,0,1,142,13a6.42,6.42,0,0,1-6.78-6.48c0-3.76,2.88-6.48,6.82-6.48a6.51,6.51,0,0,1,5.06,2.05l-1.48,1.44a4.67,4.67,0,0,0-3.47-1.44,4.31,4.31,0,0,0-4.57,4.43,4.33,4.33,0,0,0,4.55,4.43,5.06,5.06,0,0,0,2.59-.65Z"/><path d="M152.57.18h2.34v12.6h-2.34Z"/><path d="M10.1,32H2.4L.64,35.78H.22l5.85-12.6h.36l5.85,12.6h-.41Zm-.16-.35-3.69-8-3.69,8Z"/><path d="M12.5,35.93h-.72L10,32.13H2.49L.73,35.93H0l.09-.21L6,23h.54ZM12,35.64h.1L6.34,23.33H6.16L.44,35.64H.55l1.76-3.8h7.88Zm-1.8-3.85H2.34l3.91-8.46ZM2.78,31.5H9.72L6.25,24Z"/><path d="M26.3,35.78l-3.2-4.44a8,8,0,0,1-1.48.12h-3.9v4.32h-.36V23.18h4.26a5.58,5.58,0,0,1,3.64,1.09,3.74,3.74,0,0,1,1.31,3.05,3.92,3.92,0,0,1-.81,2.53,4.1,4.1,0,0,1-2.28,1.4l3.27,4.53Zm-4.64-4.66a5.09,5.09,0,0,0,3.37-1,3.45,3.45,0,0,0,1.18-2.81A3.44,3.44,0,0,0,25,24.52a5.09,5.09,0,0,0-3.37-1H17.72v7.59Z"/><path d="M27,35.93h-.8L23,31.49a7.53,7.53,0,0,1-1.42.12H17.86v4.32h-.64V23h4.4a5.72,5.72,0,0,1,3.73,1.12,3.89,3.89,0,0,1,1.37,3.16,4.08,4.08,0,0,1-.85,2.62,4.2,4.2,0,0,1-2.16,1.39Zm-.65-.29h.1l-3.24-4.48.2-.05a4,4,0,0,0,2.21-1.34,3.82,3.82,0,0,0,.78-2.45,3.63,3.63,0,0,0-1.26-2.94,5.44,5.44,0,0,0-3.55-1.05H17.5V35.64h.08V31.32h4a7.64,7.64,0,0,0,1.45-.12l.09,0,.06.07Zm-4.72-4.38H17.58V23.38h4.08a5.28,5.28,0,0,1,3.47,1,3.61,3.61,0,0,1,1.23,2.91,3.62,3.62,0,0,1-1.23,2.92A5.28,5.28,0,0,1,21.66,31.26ZM17.86,31h3.8a5,5,0,0,0,3.28-1,3.32,3.32,0,0,0,1.13-2.7,3.35,3.35,0,0,0-1.13-2.7,5,5,0,0,0-3.28-.95h-3.8Z"/><path d="M34.6,35a6,6,0,0,1-2.32-2.28,6.62,6.62,0,0,1,0-6.49A6,6,0,0,1,34.6,24a6.66,6.66,0,0,1,3.3-.83,6.88,6.88,0,0,1,2.38.41,5.11,5.11,0,0,1,1.9,1.19L42,25a5.66,5.66,0,0,0-4.06-1.51,6.28,6.28,0,0,0-3.11.79,6,6,0,0,0-2.2,2.17,6.23,6.23,0,0,0,0,6.11,5.85,5.85,0,0,0,2.2,2.16,6.18,6.18,0,0,0,3.11.8A5.63,5.63,0,0,0,42,34l.22.25a5.09,5.09,0,0,1-1.91,1.2A6.94,6.94,0,0,1,34.6,35Z"/><path d="M37.9,36a6.8,6.8,0,0,1-3.37-.85h0a6.17,6.17,0,0,1-2.37-2.33,6.77,6.77,0,0,1,0-6.64,6.31,6.31,0,0,1,2.37-2.33A6.82,6.82,0,0,1,37.9,23a7.17,7.17,0,0,1,2.43.41,5.4,5.4,0,0,1,2,1.23l.09.1-.4.46-.1-.1a5.54,5.54,0,0,0-4-1.48,6,6,0,0,0-3,.78,5.7,5.7,0,0,0-2.14,2.11,6.08,6.08,0,0,0,0,6,5.66,5.66,0,0,0,2.14,2.12,6.08,6.08,0,0,0,3,.77,5.56,5.56,0,0,0,4-1.49l.1-.1.4.47-.09.09a5.38,5.38,0,0,1-2,1.24A6.92,6.92,0,0,1,37.9,36Zm0-12.71a6.48,6.48,0,0,0-3.23.81,6,6,0,0,0-2.27,2.23,6.56,6.56,0,0,0,0,6.35,6,6,0,0,0,2.27,2.23h0a6.81,6.81,0,0,0,5.55.4A5.14,5.14,0,0,0,42,34.21l0,0a5.85,5.85,0,0,1-4.05,1.47,6.35,6.35,0,0,1-3.18-.81,6.07,6.07,0,0,1-2.25-2.22,6.36,6.36,0,0,1,0-6.25,6.07,6.07,0,0,1,2.25-2.22,6.35,6.35,0,0,1,3.18-.81A5.83,5.83,0,0,1,42,24.78l0,0a5.17,5.17,0,0,0-1.76-1.07A6.83,6.83,0,0,0,37.9,23.27Z"/><path d="M58,23.18v12.6h-.36V29.56H48.44v6.22h-.36V23.18h.36v6h9.18v-6Z"/><path d="M58.12,35.93h-.64V29.7h-8.9v6.23h-.64V23h.64v6h8.9V23h.64Zm-.35-.29h.07V23.33h-.07v6H48.3v-6h-.07V35.64h.07V29.41h9.47Z"/><path d="M65.29,23.18h.36v12.6h-.36Z"/><path d="M65.79,35.93h-.64V23h.64Zm-.36-.29h.08V23.33h-.08Z"/><path d="M75.32,23.53H70.64v-.35h9.72v.35H75.68V35.78h-.36Z"/><path d="M75.82,35.93h-.64V23.67H70.5V23h10v.63H75.82Zm-.36-.29h.08V23.38h4.68v-.05H70.78v.05h4.68Z"/><path d="M93.73,35.44v.34H85.34V23.18h8.12v.35H85.7v5.68h7v.35h-7v5.88Z"/><path d="M93.87,35.93H85.2V23h8.4v.63H85.84v5.4h7v.63h-7v5.6h8Zm-8.39-.29h8.11v-.06h-8V29.41h7v-.05h-7v-6h7.76v-.05H85.48Z"/><path d="M101.72,35a6,6,0,0,1-2.32-2.28,6.69,6.69,0,0,1,0-6.49A6,6,0,0,1,101.72,24a6.68,6.68,0,0,1,3.3-.83,6.88,6.88,0,0,1,2.38.41,5.11,5.11,0,0,1,1.9,1.19l-.22.25A5.66,5.66,0,0,0,105,23.47a6.28,6.28,0,0,0-3.11.79,5.85,5.85,0,0,0-2.19,2.17,6.23,6.23,0,0,0,0,6.11,5.75,5.75,0,0,0,2.19,2.16,6.18,6.18,0,0,0,3.11.8A5.63,5.63,0,0,0,109.08,34l.22.25a5.09,5.09,0,0,1-1.91,1.2,6.94,6.94,0,0,1-5.67-.41Z"/><path d="M105,36a6.83,6.83,0,0,1-3.37-.85h0a6.17,6.17,0,0,1-2.37-2.33,6.77,6.77,0,0,1,0-6.64,6.31,6.31,0,0,1,2.37-2.33A6.85,6.85,0,0,1,105,23a7.17,7.17,0,0,1,2.43.41,5.32,5.32,0,0,1,2,1.23l.09.1-.39.46-.11-.1a5.54,5.54,0,0,0-4-1.48,6,6,0,0,0-3,.78,5.7,5.7,0,0,0-2.14,2.11,6.08,6.08,0,0,0,0,6A5.66,5.66,0,0,0,102,34.58a6.13,6.13,0,0,0,3,.77,5.54,5.54,0,0,0,4-1.49l.11-.1.39.47-.09.09a5.38,5.38,0,0,1-2,1.24A6.92,6.92,0,0,1,105,36Zm0-12.71a6.51,6.51,0,0,0-3.23.81,6,6,0,0,0-2.27,2.23,6.56,6.56,0,0,0,0,6.35,6,6,0,0,0,2.27,2.23h0a6.81,6.81,0,0,0,5.55.4,5.14,5.14,0,0,0,1.77-1.08l0,0a5.83,5.83,0,0,1-4,1.47,6.35,6.35,0,0,1-3.18-.81,6.16,6.16,0,0,1,0-10.69,6.35,6.35,0,0,1,3.18-.81,5.83,5.83,0,0,1,4,1.45l0,0a5,5,0,0,0-1.76-1.07A6.83,6.83,0,0,0,105,23.27Z"/><path d="M117.56,23.53h-4.68v-.35h9.72v.35h-4.68V35.78h-.36Z"/><path d="M118.06,35.93h-.64V23.67h-4.68V23h10v.63h-4.68Zm-.36-.29h.08V23.38h4.68v-.05H113v.05h4.68Z"/><path d="M136.44,35a6.12,6.12,0,0,1-2.32-2.28,6.69,6.69,0,0,1,0-6.49A6.12,6.12,0,0,1,136.44,24,7,7,0,0,1,143,24a6,6,0,0,1,2.32,2.28,6.62,6.62,0,0,1,0,6.49A6,6,0,0,1,143,35a7,7,0,0,1-6.59,0Zm6.4-.3a5.71,5.71,0,0,0,2.2-2.16,6.27,6.27,0,0,0,0-6.13,5.8,5.8,0,0,0-2.2-2.17,6.57,6.57,0,0,0-6.21,0,5.78,5.78,0,0,0-2.19,2.17,6.27,6.27,0,0,0,0,6.13,5.68,5.68,0,0,0,2.19,2.16,6.5,6.5,0,0,0,6.21,0Z"/><path d="M139.74,36a6.79,6.79,0,0,1-3.36-.85A6.13,6.13,0,0,1,134,32.8a6.84,6.84,0,0,1,0-6.64,6.27,6.27,0,0,1,2.38-2.33,7.14,7.14,0,0,1,6.72,0,6.41,6.41,0,0,1,2.38,2.33,6.84,6.84,0,0,1,0,6.64,6.26,6.26,0,0,1-2.38,2.33A6.79,6.79,0,0,1,139.74,36Zm0-12.71a6.51,6.51,0,0,0-3.23.81,6,6,0,0,0-2.26,2.23,6.49,6.49,0,0,0,0,6.35,6,6,0,0,0,2.26,2.23h0a6.62,6.62,0,0,0,3.23.81,6.55,6.55,0,0,0,3.22-.81,6,6,0,0,0,2.27-2.23,6.49,6.49,0,0,0,0-6.35A6,6,0,0,0,143,24.08,6.47,6.47,0,0,0,139.74,23.27Zm0,12.37a6.45,6.45,0,0,1-3.18-.8,5.9,5.9,0,0,1-2.24-2.22,6.42,6.42,0,0,1,0-6.28,5.94,5.94,0,0,1,2.24-2.21,6.45,6.45,0,0,1,3.18-.8,6.38,6.38,0,0,1,3.17.8,5.9,5.9,0,0,1,2.25,2.21,6.42,6.42,0,0,1,0,6.28,5.85,5.85,0,0,1-2.25,2.22A6.38,6.38,0,0,1,139.74,35.64Zm0-12a6.13,6.13,0,0,0-3,.77,5.7,5.7,0,0,0-2.14,2.11,6.14,6.14,0,0,0,0,6,5.7,5.7,0,0,0,2.14,2.11,6.12,6.12,0,0,0,3,.76,6.06,6.06,0,0,0,3-.76h0a5.66,5.66,0,0,0,2.15-2.11,6.14,6.14,0,0,0,0-6,5.66,5.66,0,0,0-2.15-2.11A6.07,6.07,0,0,0,139.74,23.61Z"/><path d="M152.54,23.53v6h6.94v.35h-6.94v5.86h-.36V23.18h8.11v.35Z"/><path d="M152.68,35.93H152V23h8.4v.63h-7.76v5.76h6.95v.63h-6.95Zm-.36-.29h.08V29.77h6.94v-.05H152.4V23.38h7.75v-.05h-7.83Z"/><path d="M166.38,23.53v6h7v.35h-7v5.86H166V23.18h8.12v.35Z"/><path d="M166.52,35.93h-.64V23h8.4v.63h-7.76v5.76h6.95v.63h-6.95Zm-.36-.29h.08V29.77h6.95v-.05h-6.95V23.38H174v-.05h-7.84Z"/><path d="M179.86,23.18h.36v12.6h-.36Z"/><path d="M180.36,35.93h-.64V23h.64Zm-.36-.29h.08V23.33H180Z"/><path d="M189.36,35A6.12,6.12,0,0,1,187,32.73a6.69,6.69,0,0,1,0-6.49A6.12,6.12,0,0,1,189.36,24a6.68,6.68,0,0,1,3.3-.83,6.84,6.84,0,0,1,2.38.41,5,5,0,0,1,1.9,1.19l-.21.25a5.69,5.69,0,0,0-4.07-1.51,6.28,6.28,0,0,0-3.11.79,5.85,5.85,0,0,0-2.19,2.17,6.23,6.23,0,0,0,0,6.11,5.75,5.75,0,0,0,2.19,2.16,6.18,6.18,0,0,0,3.11.8A5.67,5.67,0,0,0,196.73,34l.21.25a5.05,5.05,0,0,1-1.9,1.2,7,7,0,0,1-5.68-.41Z"/><path d="M192.66,36a6.76,6.76,0,0,1-3.36-.85h0a6.13,6.13,0,0,1-2.38-2.33,6.84,6.84,0,0,1,0-6.64,6.27,6.27,0,0,1,2.38-2.33,6.78,6.78,0,0,1,3.36-.84,7.17,7.17,0,0,1,2.43.41A5.32,5.32,0,0,1,197,24.63l.1.1-.4.46-.11-.1a5.53,5.53,0,0,0-4-1.48,6,6,0,0,0-3,.78,5.7,5.7,0,0,0-2.14,2.11,6.08,6.08,0,0,0,0,6,5.66,5.66,0,0,0,2.14,2.12,6.13,6.13,0,0,0,3,.77,5.54,5.54,0,0,0,4-1.49l.11-.1.4.47-.1.09a5.38,5.38,0,0,1-2,1.24A6.92,6.92,0,0,1,192.66,36Zm0-12.71a6.51,6.51,0,0,0-3.23.81,6,6,0,0,0-2.26,2.23,6.49,6.49,0,0,0,0,6.35,6,6,0,0,0,2.26,2.23h0a6.84,6.84,0,0,0,5.56.4,5.19,5.19,0,0,0,1.76-1.08l0,0a5.83,5.83,0,0,1-4.05,1.47,6.35,6.35,0,0,1-3.18-.81,6.17,6.17,0,0,1,0-10.69,6.35,6.35,0,0,1,3.18-.81,5.83,5.83,0,0,1,4.05,1.45l0,0A5,5,0,0,0,195,23.67,6.93,6.93,0,0,0,192.66,23.27Z"/><path d="M211.24,35.44v.34h-8.39V23.18H211v.35h-7.75v5.68h6.95v.35h-6.95v5.88Z"/><path d="M211.38,35.93h-8.67V23h8.4v.63h-7.76v5.4h7v.63h-7v5.6h8ZM203,35.64h8.1v-.06h-8V29.41H210v-.05h-6.94v-6h7.75v-.05H203Z"/></g></g></g></svg>