<svg xmlns="http://www.w3.org/2000/svg" width="540" height="139" viewBox="0 0 540 139">
  <defs>
    <style>
      .cls-1 {
        fill-rule: evenodd;
      }
    </style>
  </defs>
  <path id="logo.svg" class="cls-1" d="M109.868,327.136a9.75,9.75,0,0,1-5.22,1.114,17.4,17.4,0,0,1-5.689-.979,16.079,16.079,0,0,1-4.776-2.521l-0.252-.2-2.276,5.127,0.14,0.122a15.3,15.3,0,0,0,5.585,2.865,24.8,24.8,0,0,0,7.268,1.072,18.147,18.147,0,0,0,7.273-1.313,10.133,10.133,0,0,0,4.5-3.551,8.819,8.819,0,0,0,1.491-4.987,7.535,7.535,0,0,0-1.7-5.152,10.372,10.372,0,0,0-4.027-2.812,43.853,43.853,0,0,0-5.917-1.743c-1.735-.427-3.121-0.813-4.118-1.147a6.884,6.884,0,0,1-2.419-1.335,2.62,2.62,0,0,1-.9-2.073,3.442,3.442,0,0,1,1.616-2.98,9.115,9.115,0,0,1,5.123-1.154,16.356,16.356,0,0,1,4.392.635,18.489,18.489,0,0,1,4.355,1.868l0.249,0.147,2.07-5.12-0.169-.113a16.321,16.321,0,0,0-5-2.158,23.379,23.379,0,0,0-5.855-.747,17.979,17.979,0,0,0-7.251,1.314,10.1,10.1,0,0,0-4.475,3.577A8.932,8.932,0,0,0,92.4,309.9a7.693,7.693,0,0,0,1.695,5.22,10.065,10.065,0,0,0,4.005,2.815,48.554,48.554,0,0,0,5.984,1.764c1.739,0.428,3.125.815,4.119,1.148a6.739,6.739,0,0,1,2.417,1.356,2.688,2.688,0,0,1,.907,2.1A3.232,3.232,0,0,1,109.868,327.136Zm26.387-7.708H152.4v13.847h6.477V300.463H152.4V313.8H136.255v-13.34h-6.477v32.812h6.477V319.428Zm43.677-18.965h-6.476v32.812h6.476V300.463Zm42.851,32.812-7.5-10.753a10.721,10.721,0,0,0,4.9-3.9A11.27,11.27,0,0,0,222,312.207a11.438,11.438,0,0,0-1.694-6.274,10.9,10.9,0,0,0-4.868-4.063,18.061,18.061,0,0,0-7.389-1.407h-13.49v32.812h6.476v-9.416h7.014c0.479,0,.848-0.011,1.12-0.034l6.566,9.45h7.048Zm-21.748-27.233h6.739a8.959,8.959,0,0,1,5.772,1.605,5.585,5.585,0,0,1,1.932,4.56,5.655,5.655,0,0,1-1.933,4.585,8.877,8.877,0,0,1-5.771,1.626h-6.739V306.042Zm49.8-5.579h-6.208l-14.708,32.812h6.713L239.8,325.8h15.763l3.219,7.478h6.8L250.9,300.611Zm2.54,20.125H242.037l5.646-13.239Zm33.438-4.619-9.285-15.506h-6.975l12.836,21.322v11.49h6.477V321.693l12.791-21.23h-6.469Zm41.79-15.358-0.066-.148h-6.209l-14.707,32.812h6.713L317.5,325.8h15.763l3.219,7.478h6.8Zm2.473,19.977H319.738l5.646-13.239Zm51.2-20.125h-6.432v21.424l-17.3-21.332-0.076-.092h-5.287v32.812h6.43V311.851l17.305,21.332,0.075,0.092h5.288V300.463Zm30.807,0h-6.208l-14.708,32.812h6.713l3.172-7.478h15.763l3.218,7.478h6.8L413.15,300.611Zm2.539,20.125H404.29l5.646-13.239Zm31.832-13.423a12.318,12.318,0,0,1,5.927-1.4,11.88,11.88,0,0,1,8.7,3.62l0.175,0.175,4.116-4.032-0.156-.18a14.778,14.778,0,0,0-5.658-3.99A19.809,19.809,0,0,0,453.107,300a18.858,18.858,0,0,0-9.061,2.176,16.186,16.186,0,0,0-6.327,6.025,17.559,17.559,0,0,0,0,17.334,16.22,16.22,0,0,0,6.3,6.024,18.631,18.631,0,0,0,8.993,2.176,22.476,22.476,0,0,0,6.88-1.073,18.269,18.269,0,0,0,5.873-3.089l0.094-.076V316.249h-6.155v10.167a12.773,12.773,0,0,1-6.371,1.557,11.9,11.9,0,0,1-5.878-1.446,10.516,10.516,0,0,1-4.043-3.968,11.2,11.2,0,0,1-1.461-5.69,11.384,11.384,0,0,1,1.461-5.782A10.209,10.209,0,0,1,447.455,307.165Zm38.683-6.7h-6.477v32.812h6.477V300.463ZM106.784,355.852h-1.238L90.371,388.664H91.98l4.506-9.739h19.359l4.5,9.739h1.609L106.851,356Zm8.415,21.694H97.131l9.034-19.6Zm41-4.185a10.4,10.4,0,0,0,2.124-6.642,9.9,9.9,0,0,0-3.447-8.017c-2.274-1.891-5.452-2.85-9.447-2.85H134.283v32.812H135.7V377.586h9.727a20.084,20.084,0,0,0,3.661-.3l8.165,11.375h1.766l-8.442-11.734A10.676,10.676,0,0,0,156.2,373.361Zm0.7-6.642a8.7,8.7,0,0,1-2.923,7.009c-1.952,1.646-4.8,2.48-8.46,2.48H135.7V357.231h9.819c3.661,0,6.507.834,8.46,2.48A8.7,8.7,0,0,1,156.9,366.719Zm22.28-7.628a15.556,15.556,0,0,1,7.808-2A14.219,14.219,0,0,1,197.21,360.9l0.191,0.184,0.873-1.025-0.163-.164a13.468,13.468,0,0,0-4.941-3.127,17.837,17.837,0,0,0-6.178-1.054,17.167,17.167,0,0,0-8.535,2.155,15.9,15.9,0,0,0-6.026,5.932,17.391,17.391,0,0,0,0,16.915,15.879,15.879,0,0,0,6.025,5.931,17.153,17.153,0,0,0,8.536,2.156,17.545,17.545,0,0,0,6.156-1.078,13.661,13.661,0,0,0,4.963-3.15l0.163-.165-0.873-1.023-0.191.183a14.225,14.225,0,0,1-10.218,3.854,15.545,15.545,0,0,1-7.808-2,14.7,14.7,0,0,1-5.516-5.469,15.724,15.724,0,0,1,0-15.4A14.7,14.7,0,0,1,179.184,359.091Zm57.95,12.224H214.185V355.852h-1.419v32.812h1.419v-15.97h22.949v15.97h1.419V355.852h-1.419v15.463Zm19.586,17.349h1.419V355.852H256.72v32.812Zm13.654-31.433h11.954v31.433h1.419V357.231H295.7v-1.379H270.374v1.379Zm38.983,15.463H327.1v-1.379H309.357V357.231h19.815v-1.379H307.937v32.812h21.925v-1.379h-20.5V372.694Zm41.276-13.6a15.549,15.549,0,0,1,7.807-2,14.227,14.227,0,0,1,10.218,3.808l0.191,0.184,0.874-1.025-0.164-.164a13.468,13.468,0,0,0-4.941-3.127,17.845,17.845,0,0,0-6.178-1.054,17.18,17.18,0,0,0-8.537,2.155,15.884,15.884,0,0,0-6.023,5.932,17.384,17.384,0,0,0,0,16.915,15.867,15.867,0,0,0,6.023,5.931,17.162,17.162,0,0,0,8.537,2.156,17.549,17.549,0,0,0,6.156-1.078,13.644,13.644,0,0,0,4.963-3.15l0.164-.165-0.874-1.023-0.191.183a14.226,14.226,0,0,1-10.218,3.854,15.539,15.539,0,0,1-7.807-2,14.681,14.681,0,0,1-5.517-5.469,15.731,15.731,0,0,1,0-15.4A14.691,14.691,0,0,1,350.633,359.091Zm27.649-1.86h11.955v31.433h1.419V357.231H403.61v-1.379H378.282v1.379Zm77.383,0.638a17.983,17.983,0,0,0-17.072,0,15.894,15.894,0,0,0-6.024,5.932,17.391,17.391,0,0,0,0,16.915,15.877,15.877,0,0,0,6.024,5.931,17.976,17.976,0,0,0,17.072,0,15.886,15.886,0,0,0,6.025-5.931,17.384,17.384,0,0,0,0-16.915A15.9,15.9,0,0,0,455.665,357.869Zm-8.536,29.555a15.692,15.692,0,0,1-7.808-1.975A14.542,14.542,0,0,1,433.805,380a15.907,15.907,0,0,1,0-15.487,14.535,14.535,0,0,1,5.516-5.447,16.416,16.416,0,0,1,15.617,0,14.533,14.533,0,0,1,5.515,5.447,15.907,15.907,0,0,1,0,15.487,14.54,14.54,0,0,1-5.515,5.447A15.7,15.7,0,0,1,447.129,387.424Zm31.521,1.24h1.419V373.617h17.747v-1.379H480.069V357.231h19.816v-1.379H478.65v32.812Zm35.356,0h1.42V373.617h17.748v-1.379H515.426V357.231h19.817v-1.379H514.006v32.812Zm35.357,0h1.419V355.852h-1.419v32.812ZM574.5,359.091a15.556,15.556,0,0,1,7.808-2,14.227,14.227,0,0,1,10.218,3.808l0.191,0.184,0.874-1.025-0.164-.164a13.468,13.468,0,0,0-4.941-3.127,17.845,17.845,0,0,0-6.178-1.054,17.18,17.18,0,0,0-8.537,2.155,15.908,15.908,0,0,0-6.024,5.932,17.391,17.391,0,0,0,0,16.915,15.9,15.9,0,0,0,6.024,5.931A17.162,17.162,0,0,0,582.3,388.8a17.545,17.545,0,0,0,6.156-1.078,13.644,13.644,0,0,0,4.963-3.15l0.164-.165-0.874-1.023-0.191.183a14.223,14.223,0,0,1-10.218,3.854,15.545,15.545,0,0,1-7.808-2,14.685,14.685,0,0,1-5.516-5.469,15.724,15.724,0,0,1,0-15.4A14.688,14.688,0,0,1,574.5,359.091Zm35,28.194V372.694h17.747v-1.379H609.5V357.231h19.817v-1.379H608.076v32.812H630v-1.379H609.5ZM98.121,420.822l0.1-.253-0.885-.267-0.08.224a27.945,27.945,0,0,1-1.514,3.367H90v15.014h0.9v-0.883h12.876v0.883h0.9V423.893H96.707A29.684,29.684,0,0,0,98.121,420.822Zm5.655,10.4v5.921H90.9V431.22h12.876ZM90.9,430.336v-5.56h12.876v5.56H90.9Zm31.808-9.9a20.072,20.072,0,0,1-4.511,1.751h-0.63v11.522c-0.407.114-.78,0.227-1.1,0.323l-0.476.144,0.306,0.876,0.229-.07c0.931-.281,3.014-0.912,4.582-1.438-0.345,2.02-1.582,3.439-3.961,4.563l-0.269.128,0.532,0.759,0.191-.091c3.127-1.5,4.521-3.573,4.521-6.71v-8.4h-0.9v8.38c0,0.136,0,.263-0.006.394-0.6.192-1.3,0.412-2,.631l-0.756.238V423.019a21.116,21.116,0,0,0,4.713-1.809l0.229-.131-0.5-.767Zm-6.317,10.511,0.674-.675-0.087-.165c-0.488-.914-1.3-2.332-2.05-3.47v-0.778h2.1v-0.882h-2.1V420.36h-0.9v4.617h-3.139v0.882h3.037a28.084,28.084,0,0,1-3.293,8.259l-0.113.167,0.654,0.7,0.174-.267a27.89,27.89,0,0,0,2.68-6.032v10.241h0.9V428.269c0.515,0.872,1,1.774,1.307,2.372Zm7.354,7.94h0.9V422.528h3.279v10.93c0,0.214-.025.267-0.25,0.291-0.259,0-1.154,0-1.771-.021l-0.272-.009,0.045,0.907,0.232,0.006a15.85,15.85,0,0,0,2.066-.023,1,1,0,0,0,.85-1.132V421.645h-5.079v17.242Zm9.933-8.973h18.455v-0.9H133.678v0.9Zm24.491,1.9a16.581,16.581,0,0,1-1.595,5.019l-0.12.236,0.859,0.387,0.107-.216a19.162,19.162,0,0,0,1.662-5.291l0.041-.252-0.919-.131Zm12.6,2.829a18.09,18.09,0,0,0,3.583-7.638l0.049-.229-0.5-.145-2.952-.01c0.531-1.474,1.262-3.514,1.722-5.015l0.083-.27-0.542-.1h-8.147v0.883h1.9c-0.018,5.306-.16,9.618-1.3,12.794a19.1,19.1,0,0,0-1.14-3.254l-0.1-.21-0.852.314,0.115,0.247a17.683,17.683,0,0,1,1.2,3.656l0.053,0.272,0.344-.1a8.864,8.864,0,0,1-1.4,2.186l-0.19.215,0.782,0.525,0.144-.169c2.156-2.516,2.814-6.312,3.074-10.217a21.2,21.2,0,0,0,2.895,6.222A16.083,16.083,0,0,1,165,438.132l-0.3.158,0.693,0.695,0.163-.087a17.156,17.156,0,0,0,4.608-3.547,13.054,13.054,0,0,0,4.28,3.509l0.162,0.082,0.128-.128c0.061-.062.122-0.119,0.181-0.172s0.109-.1.158-0.15l0.246-.246L175,438.091A12.551,12.551,0,0,1,170.773,434.645Zm-3.905-11.658,0.012-.861h4.653c-0.6,1.917-1.457,4.293-1.972,5.577l-0.114.283,0.923,0.176,0.254-.656H173.3a16.245,16.245,0,0,1-3.09,6.382,23.112,23.112,0,0,1-3.384-8.671C166.85,424.485,166.859,423.744,166.868,422.987ZM163.8,430.25c0.269,0.448.463,0.8,0.606,1.107l0.124,0.261,0.241-.16a3.471,3.471,0,0,1,.334-0.206l0.22-.112-0.109-.222a18.191,18.191,0,0,0-2.882-4.017l-0.153-.161-0.725.544,0.2,0.2a17.5,17.5,0,0,1,1.585,1.926c-1.122.1-2.58,0.224-4.068,0.337a65.78,65.78,0,0,0,4.856-6.946l0.143-.241-0.863-.391-0.112.2a49.239,49.239,0,0,1-2.825,4.318c-0.485-.638-0.978-1.23-1.471-1.764a34.422,34.422,0,0,0,2.595-4l0.116-.222-0.826-.437-0.114.229a28.127,28.127,0,0,1-2.4,3.781c-0.268-.274-0.557-0.549-0.909-0.865l-0.183-.164-0.6.651,0.194,0.17a20.322,20.322,0,0,1,3.037,3.4c-0.562.772-1.173,1.568-1.819,2.372l-0.326.023c-0.384.029-.729,0.054-1.02,0.069l-0.314.017,0.262,0.922,0.2-.017c0.957-.075,2.319-0.186,3.689-0.3v8.37h0.9v-8.451c0.77-.065,1.522-0.139,2.191-0.2Zm26.671-5.072h-6.279v0.882h6.279v1.968h-4.959v0.883h4.959v1.827h-5.1v0.882h5.1v1.888h-6.279v0.883h6.279v2.93h0.9v-2.93h6.358v-0.883h-6.358V431.62h5.219v-0.882h-5.219v-1.827h4.5V426.06h1.859v-0.882h-1.859v-2.75h-4.5V420.36h-0.9v2.068h-4.959v0.883h4.959v1.867Zm0.9,0v-1.867h3.6v1.867h-3.6Zm0,2.85V426.06h3.6v1.968h-3.6Zm-0.306,9.474c-3.761-.063-6.161-1.039-7.989-3.257a23.635,23.635,0,0,0,1.874-6.349l0.034-.219-0.492-.141-3.238-.01c0.777-1.159,2.452-3.685,3.6-5.644l0.167-.283-0.536-.146-5.095-.009v0.883h4.148c-1.205,2.007-2.943,4.641-4.042,6.208l-0.187.267,0.87,0.322,0.475-.715h3.292a21.2,21.2,0,0,1-1.473,5.033,16.519,16.519,0,0,1-1.759-3.487l-0.085-.225-0.838.28,0.1,0.247a17.936,17.936,0,0,0,2.14,4.09,12.911,12.911,0,0,1-2.872,3.86l-0.221.2,0.718,0.585,0.159-.149a14.229,14.229,0,0,0,2.819-3.73c1.966,2.25,4.564,3.276,8.363,3.317,1.157,0.019,5.492,0,6.547-.021l0.234,0,0.044-.929-0.272.011C196.536,437.522,192.086,437.522,191.066,437.5Zm21.527-3.854h7.786v-0.883h-8.7v-2.148h-0.9v2.148H202.2v0.883h7.71a18.583,18.583,0,0,1-7.727,4.164l-0.414.116,0.305,0.3c0.094,0.095.189,0.209,0.284,0.324l0.106,0.128,0.159-.048A19.129,19.129,0,0,0,210.782,434v4.908h0.9v-4.938A18.625,18.625,0,0,0,220,438.537l0.156,0.043,0.1-.125c0.094-.113.189-0.209,0.284-0.3l0.309-.307-0.421-.112A18.7,18.7,0,0,1,212.593,433.648Zm0.224-7.1-0.173-.124-0.616.619,0.237,0.173a10.681,10.681,0,0,1,2.578,2.527l0.143,0.213,0.751-.534-0.142-.2A11.588,11.588,0,0,0,212.817,426.549Zm-2.37-2.072-0.261.229,0.516,0.3v2.526c0,1.437-.985,2.693-2.927,3.733l-0.329.176,0.761,0.63,0.149-.086c2.153-1.235,3.245-2.726,3.245-4.433v-1.777h4.739v4.045a1.08,1.08,0,0,0,1.19,1.335h1.686c0.992-.028,1.048-0.549,1.123-2.751l0.007-.2-0.884-.235,0,0.323c-0.018,1.948-.055,1.949-0.33,1.96H217.6c-0.354-.014-0.36-0.014-0.36-0.432v-4.665l0.718-.341-0.131-.234a14.206,14.206,0,0,0-1.217-1.815h3.929v-0.883h-6.895a8.372,8.372,0,0,0,.5-1.087l0.1-.273-0.873-.185-0.076.2A10.1,10.1,0,0,1,210.447,424.477Zm5.044-1.708a16.463,16.463,0,0,1,1.458,2.127h-5.664a12.669,12.669,0,0,0,1.82-2.127h2.386Zm-13.073,2.654,0.16,0.13,0.086-.073V426.2H205.6v3.452c-1.171.321-2.275,0.622-3.053,0.832l-0.257.068,0.3,0.9,0.229-.064c1.683-.468,4.679-1.332,6.583-1.909l0.2-.06-0.093-.889-0.289.088c-0.446.135-.957,0.281-1.5,0.435-0.4.114-.808,0.231-1.221,0.353V426.2h3.019v-0.884h-6.669a13.986,13.986,0,0,0,2.291-2.549h1.944a10.21,10.21,0,0,1,1.293,2.252l0.093,0.231,0.869-.349-0.1-.236a10.567,10.567,0,0,0-1.079-1.9h3.358v-0.883h-5.834a11.271,11.271,0,0,0,.517-1.079l0.116-.279-0.882-.186-0.078.2a10.8,10.8,0,0,1-3.265,4.274l-0.3.247,0.346,0.171A1.631,1.631,0,0,1,202.418,425.423Zm29.383,2.735,0.627,0.674,0.178-.129a5.375,5.375,0,0,0,2.564-4.5v-2.418h4.4v4.627c0,0.951.321,1.33,1.15,1.354h1.607c0.974-.027,1.025-0.5,1.1-2.71l0.007-.2-0.863-.242,0,0.327c-0.018,1.888-.07,1.89-0.31,1.9h-1.45c-0.34-.013-0.34-0.013-0.34-0.431V420.9h-6.2v3.282a4.517,4.517,0,0,1-2.232,3.809Zm-5.948,1.977h6.138v-0.883h-6.138v0.883Zm5.917-8.932h-5.7v0.883h5.7V421.2Zm0.221,5.359h-6.138v0.884h6.138v-0.884Zm0.1,5.38h-6.339v6.945h0.9v-1.044h5.439v-5.9Zm-5.439,5.018v-4.135h4.539v4.135h-4.539Zm11.8-1.638a12.988,12.988,0,0,0,3.686-5.848l0.066-.224-0.537-.2-8.916-.016v0.883h1.373l-0.324.131,0.087,0.23a14.307,14.307,0,0,0,3.181,5.032,17.731,17.731,0,0,1-4.993,2.773l-0.355.131,0.715,0.76,0.156-.06a18.317,18.317,0,0,0,5.144-2.955,15.1,15.1,0,0,0,5.042,2.918l0.157,0.055,0.706-.794-0.364-.119A13.663,13.663,0,0,1,238.451,435.322Zm-0.684-.624a13.176,13.176,0,0,1-3.013-4.76l-0.008-.024h6.244A11.943,11.943,0,0,1,237.767,434.7Zm-4.777-10.845h-8.158v0.882h8.158v-0.882Zm28.628-3.493h-0.9v6.765H255.9v0.882h4.819v10.921h0.9V428.007H266.1v-0.882h-4.478V420.36Zm-12.936,9.775H255.1v-0.883h-6.418v0.883Zm7.4-6.282h-8.458v0.882h8.458v-0.882Zm-0.979,2.709h-6.418v0.884H255.1v-0.884Zm-6.519,12.325h0.9v-1.044h5.7v-5.9h-6.6v6.945Zm0.9-1.927v-4.135h4.8v4.135h-4.8ZM254.9,421.2h-6v0.883h6V421.2Zm25.147-.843h-0.9v1.867H270.43v0.883h8.718V424.3H272.77v3.712h6.378v1.2H272.03V430.1h7.118v1.725H270.43V432.7h8.718v1.847H272.03v0.9h7.118v1.836c0,0.488-.092.669-0.6,0.712-0.389.021-1.616,0.021-2.515-.019l-0.274-.012,0.044,0.907,0.229,0.008c0.55,0.022,1.175.038,1.715,0.038a10.2,10.2,0,0,0,1.09-.041,1.335,1.335,0,0,0,1.213-1.572v-1.857h6.739V432.7h2.1v-0.883h-2.1v-2.609h-6.739v-1.2h6.538V424.3h-6.538V423.11h8.838v-0.883h-8.838V420.36Zm0,6.765v-1.947h5.619v1.947h-5.619Zm5.819,5.579v1.847h-5.819V432.7h5.819Zm-5.819-.883V430.1h5.819v1.725h-5.819Zm-0.9-6.643v1.947h-5.479v-1.947h5.479Zm28.078,2.529a9.76,9.76,0,0,0,2.561-4.195h1.907v-0.884h-7.455a13.745,13.745,0,0,0,.687-1.867L305,420.5l-0.874-.184-0.062.228a13.189,13.189,0,0,1-2.924,5.258l-0.2.218,0.768,0.5,0.142-.164a14.6,14.6,0,0,0,1.543-2.141,11.821,11.821,0,0,0,2.506,3.527,15.534,15.534,0,0,1-4.873,2.346l-0.362.116,0.618,0.714,0.157-.052a17.857,17.857,0,0,0,4.171-1.9l-0.018.211c-0.065.767-.154,1.655-0.316,2.521h-4.3v0.884h4.089a7.853,7.853,0,0,1-4.641,5.561l-0.319.143,0.641,0.69,0.163-.074a8.663,8.663,0,0,0,5.093-6.32h3.751c-0.356,4.373-.733,5.251-0.927,5.38a0.548,0.548,0,0,1-.313.059c-0.427.019-1.385,0-1.931-.039l-0.267-.02v0.914l0.512,0.018c0.6,0.021,1.346.048,1.737,0.031a1.355,1.355,0,0,0,.787-0.217c0.534-.317.97-1.585,1.362-6.741l0.02-.269H306.19c0.155-.838.241-1.705,0.3-2.457l0.022-.259-0.859-.044q0.468-.3.886-0.64a13.4,13.4,0,0,0,4.934,2.528l0.156,0.043,0.634-.771-0.38-.1A12.239,12.239,0,0,1,307.226,427.707Zm1.634-4.195a8.849,8.849,0,0,1-2.276,3.644,10.72,10.72,0,0,1-2.544-3.644h4.82Zm-6.642,3.23-0.571-.1h-2.469a12.939,12.939,0,0,0-.844-1.01,30.429,30.429,0,0,0,3.282-4.02l0.144-.221-0.525-.309h-7.1v0.883h6.132a24.657,24.657,0,0,1-2.562,3.012c-0.541-.531-1.172-1.092-1.922-1.71l-0.181-.15L295,423.77l0.212,0.169a19.1,19.1,0,0,1,2.817,2.7H293.2v0.884h4.034a21.556,21.556,0,0,1-4.482,8.165l-0.184.189,0.719,0.636,0.165-.176a21.837,21.837,0,0,0,3.967-6.7v8.055c0,0.233-.037.3-0.308,0.312s-1.28.019-1.947-.021l-0.277-.016,0.044,0.933,0.233,0.006c0.431,0.011.879,0.021,1.272,0.021a7.615,7.615,0,0,0,.991-0.044,1.035,1.035,0,0,0,.892-1.172V427.526H300.9a24.134,24.134,0,0,1-1.835,3.178l-0.194.28,0.881,0.28,0.1-.154a25.381,25.381,0,0,0,2.243-4.079Zm23.267-5.359h-9.477v0.884h9.477v-0.884Zm0.96,5.441v-3.432a33.416,33.416,0,0,0,7.2-2.214l0.287-.139-0.612-.745-0.179.1a28.984,28.984,0,0,1-7,2.139h-0.59v7.537a9.9,9.9,0,0,1-3.509,8.117l-0.232.194,0.734,0.606,0.159-.134a10.783,10.783,0,0,0,3.748-8.763v-2.378H330.5v11.2h0.9v-11.2h3.079v-0.883h-8.037Zm-2.24-2.008h-7.037v6.032a15.523,15.523,0,0,1-1.47,7.368l-0.1.188,0.743,0.571,0.138-.261a16.61,16.61,0,0,0,1.589-7.836h6.138v-6.062ZM318.067,430v-4.3h5.219V430h-5.219Z" transform="translate(-90 -300)"/>
</svg>
