<svg xmlns="http://www.w3.org/2000/svg" width="541.26" height="138.41" viewBox="0 0 541.26 138.41"><g id="a5e3f849-769a-4c18-810c-909325e0f7ac" data-name="Layer 2"><g id="bccbd072-fe44-4515-973e-513de5077f7d" data-name="4"><g style="isolation:isolate"><g style="isolation:isolate"><path d="M.4,137.5v.88H0V123.92H5.64a28.28,28.28,0,0,0,1.6-3.52l.4.12a29.39,29.39,0,0,1-1.6,3.4h8.14v14.46h-.4v-.88Zm13.38-7.16v-6H.4v6Zm0,6.78v-6.4H.4v6.4Z"/><path d="M26.52,130l-.3.3c-.4-.78-1.1-2.06-1.78-3.14V138.4H24V126.76a30.29,30.29,0,0,1-3.14,7.56l-.3-.32a28.22,28.22,0,0,0,3.4-8.62H20.9V125H24v-4.6h.4V125h2.1v.38h-2.1v1.1C25.22,127.66,26.06,129.12,26.52,130Zm1.06,3.66V122.22H28a20.23,20.23,0,0,0,4.64-1.78l.22.34A20.84,20.84,0,0,1,28,122.6v10.92l3.24-1a5.62,5.62,0,0,0,0-.58v-8.1h.4v8.12c0,2.78-1.08,4.88-4.38,6.46l-.24-.34c2.76-1.3,3.92-3,4.16-5.14-1.52.52-3.7,1.18-5,1.56l-.14-.4C26.48,134,27,133.8,27.58,133.64Zm10.56-12h.2v11.54c0,.48-.14.8-.64.88a15.93,15.93,0,0,1-2,0l0-.4c.62,0,1.52,0,1.78,0s.5-.22.5-.54V122.06H34.16v16.3h-.4V121.68h4.38Z"/><path d="M61.66,129v.4h-18V129Z"/><path d="M70.92,138.4h-.4V130l-4,.32-.12-.42,1.46-.1c.68-.84,1.36-1.72,2-2.6a20.36,20.36,0,0,0-3.18-3.58l.26-.28c.38.34.74.68,1.1,1.06a29,29,0,0,0,2.6-4l.38.2a34.83,34.83,0,0,1-2.7,4.12,23.83,23.83,0,0,1,1.8,2.16,51.07,51.07,0,0,0,3-4.6l.4.18a65.32,65.32,0,0,1-5.2,7.34c1.64-.12,3.62-.28,5.08-.42a18.35,18.35,0,0,0-1.86-2.3l.32-.24a17.77,17.77,0,0,1,2.84,3.94,3.48,3.48,0,0,0-.36.22,14.22,14.22,0,0,0-.7-1.26c-.82.08-1.8.18-2.8.26Zm-2.3-6.74a18.88,18.88,0,0,1-1.64,5.2l-.4-.18a16.83,16.83,0,0,0,1.62-5.08Zm4.46-.14a18,18,0,0,1,1.24,3.72l-.4.12a17.72,17.72,0,0,0-1.22-3.7Zm10.38-4.88h.16l.28.08a17.75,17.75,0,0,1-3.66,7.66A12.8,12.8,0,0,0,84.68,138l-.34.32A12.78,12.78,0,0,1,80,134.7a16.93,16.93,0,0,1-4.74,3.7l-.32-.32a16.37,16.37,0,0,0,4.8-3.72,21.74,21.74,0,0,1-3.38-7.8c-.22,5-.88,9-3.1,11.6l-.36-.24c2.94-3.32,3.12-9.2,3.14-16.26H74.1v-.38H82l.22,0c-.48,1.56-1.26,3.72-1.84,5.32Zm-3.22.38-.24.62-.42-.08c.58-1.44,1.5-4,2.08-5.9H76.42c0,1.14,0,2.24-.06,3.32A22.68,22.68,0,0,0,80,134a16.48,16.48,0,0,0,3.42-7Z"/><path d="M92.32,133.68A21,21,0,0,0,94,127.92H90.32l-.44.66-.38-.14c1.14-1.62,3.06-4.52,4.28-6.58H89.44v-.38h4.78l.22.06c-1,1.76-2.64,4.2-3.86,6h3.64l.28.08a23.22,23.22,0,0,1-1.92,6.4c2,2.52,4.68,3.4,8.28,3.46,1.06,0,5.48,0,6.5,0l0,.42c-1.06,0-5.4,0-6.54,0-3.68,0-6.36-1-8.42-3.5a14.11,14.11,0,0,1-2.94,4l-.32-.26a13.17,13.17,0,0,0,3-4.06,17.32,17.32,0,0,1-2.2-4.14l.36-.12A15.92,15.92,0,0,0,92.32,133.68Zm8.2-.18v-2.38h-5.1v-.38h5.1v-2.32h-5V128h5v-2.46H94.24v-.38h6.28v-2.36h-5v-.38h5V120.4h.4v2.06h4.5v2.74h1.86v.38h-1.86v2.84h-4.5v2.32h5.22v.38h-5.22v2.38h6.36v.38h-6.36v2.92h-.4v-2.92H94.24v-.38Zm4.5-8.3v-2.36h-4.1v2.36Zm-4.1.38V128H105v-2.46Z"/><path d="M118.82,124.54l-.4.16a10.57,10.57,0,0,0-1.4-2.4h-2.2a13.62,13.62,0,0,1-2.44,2.7,1.81,1.81,0,0,0-.32-.22,11,11,0,0,0,3.34-4.36l.38.08a10.52,10.52,0,0,1-.72,1.42h6v.38h-3.6A11,11,0,0,1,118.82,124.54Zm11.36,13.16c-.1.1-.2.2-.3.32-3.14-.88-6.66-2.58-8.56-4.88h-.08v5.24h-.4v-5.24h-.06c-1.86,2.3-5.36,4-8.42,5-.1-.12-.2-.24-.3-.34,3-.82,6.38-2.52,8.24-4.64h-8v-.38h8.58v-2.14h.4v2.14h8.7v.38h-8.12C123.7,135.26,127.16,136.9,130.18,137.7Zm-14.52-8.1v-3.88h-2.94v-.38h6.36v.38h-3v3.78c1.08-.32,2.18-.62,3-.88l0,.38c-1.92.58-4.92,1.44-6.58,1.9l-.14-.42Zm10.94-4.68h.2v4.66c0,.54.1.66.6.68h1.54c.52,0,.56-.1.58-2.2l.38.1c-.08,2.32-.18,2.48-.88,2.5h-1.68c-.7,0-.94-.24-.94-1.08V125.3h-5.24v2c0,1.6-1,3-3.12,4.2l-.34-.28c2.1-1.12,3.06-2.48,3.06-3.94v-2.38h5.84Zm.82-.44-.38.18a16.72,16.72,0,0,0-1.62-2.36h-2.64a12.49,12.49,0,0,1-2,2.34l-.34-.2a10.27,10.27,0,0,0,2.92-4l.38.08a8.5,8.5,0,0,1-.7,1.42h7.08v.38h-4.2A15,15,0,0,1,127.42,124.48Zm-4.94,2a11.38,11.38,0,0,1,2.72,2.6l-.34.24a10.83,10.83,0,0,0-2.64-2.58Z"/><path d="M142.56,123.88v.38H134.9v-.38Zm-6.34,8.06h5.44v5.38h-5.44v1h-.4v-6.42h.4Zm5.34-5.36V127h-5.64v-.38Zm0,2.68v.38h-5.64v-.38Zm-.22-8v.38h-5.2v-.38Zm-.08,15.7v-4.62h-5v4.62Zm6.32-2.16a12.16,12.16,0,0,0,3.58-5.36h-8.34V129h8.58l.32.12a12.82,12.82,0,0,1-3.82,5.9A13.89,13.89,0,0,0,153,138l-.34.38a14.84,14.84,0,0,1-5.12-3,18,18,0,0,1-5.24,3L142,138a17.85,17.85,0,0,0,5.28-3,13.93,13.93,0,0,1-3.32-5.12l.4-.16A13.37,13.37,0,0,0,147.58,134.78Zm2.3-13.84H150v5.24c0,.56.1.66.58.68h1.46c.48,0,.54-.08.56-2.14l.36.1c-.08,2.28-.16,2.44-.86,2.46h-1.6c-.66,0-.9-.26-.9-1.1v-4.86h-4.9V124a5.12,5.12,0,0,1-2.46,4.28L142,128a4.75,4.75,0,0,0,2.34-4v-3h5.54Z"/><path d="M165.66,123.88v.38h-8v-.38Zm-6.6,8.06h5.7v5.38h-5.7v1h-.4v-6.42h.4Zm5.62-5.36V127h-5.92v-.38Zm0,2.68v.38h-5.92v-.38Zm-.2-8v.38H159v-.38Zm-.12,15.7v-4.62h-5.3v4.62Zm6.44-9.8V120.4h.4v6.74h4.48v.38H171.2V138.4h-.4V127.52H166v-.38Z"/><path d="M189.24,131.82V129.6h-7.12v-.38h7.12v-1.7h-6.38v-3.2h6.38v-1.68h-8.72v-.38h8.72V120.4h.4v1.86h8.84v.38h-8.84v1.68h6.54v3.2h-6.54v1.7h6.74v2.6h2.1v.38h-2.1v2.74h-6.74V137c0,.72-.18,1.2-1,1.32a24.9,24.9,0,0,1-2.76,0l0-.4c.9,0,2.14,0,2.54,0,.7-.06.84-.4.84-1v-2.08h-7.12v-.4h7.12V132.2h-8.72v-.38Zm-6-4.68h6V124.7h-6Zm12.5,0V124.7h-6.12v2.44Zm.2,4.68V129.6h-6.32v2.22Zm-6.32.38v2.34H196V132.2Z"/><path d="M207.24,138.36a19.23,19.23,0,0,1-2.22,0l0-.42c.68,0,1.7,0,2,0s.54-.22.54-.56V128a22.33,22.33,0,0,1-4.4,7.94l-.34-.3a21.81,21.81,0,0,0,4.64-8.56H203.3v-.38h5.1a18.21,18.21,0,0,0-3.18-3.14l.26-.28c.78.64,1.48,1.26,2.08,1.86a24,24,0,0,0,3-3.6h-6.36v-.38H211l.24.14a30.37,30.37,0,0,1-3.42,4.14,12.6,12.6,0,0,1,1,1.2l-.08.06h2.72l.22,0a25,25,0,0,1-2.22,4l-.38-.12a23.7,23.7,0,0,0,2-3.56h-3.22v10.4C207.92,137.94,207.78,138.28,207.24,138.36Zm8.5-6.66h4.58c-.32,4.2-.7,6.2-1.24,6.52a1.12,1.12,0,0,1-.66.18c-.46,0-1.42,0-2,0V138c.56,0,1.52.06,2,0a.76.76,0,0,0,.44-.1c.42-.28.76-2,1.06-5.82h-4.22a8.42,8.42,0,0,1-5,6.32l-.28-.3a8.14,8.14,0,0,0,4.86-6h-4.16v-.38h4.26a23.82,23.82,0,0,0,.36-2.74l.4,0A22.9,22.9,0,0,1,215.74,131.7Zm1-4.22a12.5,12.5,0,0,0,5,2.52l-.28.34a13.14,13.14,0,0,1-5-2.6,15.58,15.58,0,0,1-5.18,2.64l-.26-.3a15.3,15.3,0,0,0,5.18-2.56,11.53,11.53,0,0,1-2.86-4.08,14.6,14.6,0,0,1-1.76,2.52l-.34-.22a13.33,13.33,0,0,0,3-5.34l.38.08a13.65,13.65,0,0,1-.84,2.18h7.6V123h-1.84A9.48,9.48,0,0,1,216.7,127.48Zm2.36-4.44h-5.54a10.94,10.94,0,0,0,2.92,4.22A9.12,9.12,0,0,0,219.06,123Z"/><path d="M227.68,124.84h6.14v5.54h-6.14v.22a16.47,16.47,0,0,1-1.56,7.72l-.34-.26a15.78,15.78,0,0,0,1.5-7.46v-5.76h.4Zm7.42-3.42v.38h-9v-.38ZM233.4,130v-4.78h-5.72V130Zm7.62,8.38h-.4V127.22h-4.56v2.62a10.52,10.52,0,0,1-3.66,8.54l-.34-.28a10.1,10.1,0,0,0,3.6-8.28v-7.26H236a29,29,0,0,0,7.12-2.16l.28.34a33,33,0,0,1-7.34,2.22v3.88h8v.38H241Z"/></g></g><g style="isolation:isolate"><g style="isolation:isolate"><path d="M3.21,29.26l2.07-4.65A17.83,17.83,0,0,0,15.9,28.16c5,0,7.13-1.8,7.13-4.19C23,17,3.9,21.58,3.9,9.62,3.9,4.42,8,0,16.87,0A20.38,20.38,0,0,1,27.59,2.85L25.7,7.5A17.92,17.92,0,0,0,16.82,5c-5,0-7,1.93-7,4.37,0,6.85,19.09,2.39,19.09,14.21,0,5.16-4.18,9.57-13,9.57C10.89,33.12,5.87,31.56,3.21,29.26Z"/><path d="M69.91.46v32.2h-6V18.86H47.27v13.8h-6V.46h6v13.3H63.93V.46Z"/><path d="M85,.46h6v32.2H85Z"/><path d="M127.18,32.66l-6.58-9.43a10.37,10.37,0,0,1-1.24.05h-7.27v9.38h-6V.46h13.25c8.46,0,13.71,4.33,13.71,11.46a10.3,10.3,0,0,1-6.86,10.16l7.41,10.58Zm-8.1-27.14h-7V18.36h7c5.24,0,8-2.4,8-6.44S124.32,5.52,119.08,5.52Z"/><path d="M167.06,25.21H151l-3.18,7.45h-6.16L156.11.46H162l14.54,32.2h-6.26Zm-2-4.69L159,6.44l-6,14.08Z"/><path d="M201,21.3V32.66h-6V21.39L182.33.46h6.39l9.43,15.69L207.68.46h5.88Z"/><path d="M244.8,25.21H228.7l-3.18,7.45h-6.16L233.85.46h5.89l14.53,32.2H248Zm-2-4.69L236.75,6.44l-6,14.08Z"/><path d="M293.42.46v32.2H288.5l-17.76-21.8v21.8h-5.93V.46h4.92l17.76,21.81V.46Z"/><path d="M329.39,25.21h-16.1l-3.17,7.45H304L318.44.46h5.89l14.54,32.2h-6.26Zm-2-4.69L321.34,6.44l-6,14.08Z"/><path d="M371.39,16.19h5.66V29a20.42,20.42,0,0,1-12.61,4.09c-10,0-17.34-6.94-17.34-16.56S354.46,0,364.53,0c5.39,0,9.9,1.79,12.93,5.25l-3.77,3.68a12,12,0,0,0-8.88-3.68c-6.85,0-11.68,4.64-11.68,11.31S358,27.88,364.77,27.88a13,13,0,0,0,6.62-1.66Z"/><path d="M391.35.46h6v32.2h-6Z"/></g><g style="isolation:isolate"><path d="M27.26,78.16H7.57l-4.5,9.7H2l15-32.2h.92l15,32.2H31.77Zm-.41-.88L17.42,56.91,8,77.28Z"/><path d="M68.66,87.86,60.47,76.5a19,19,0,0,1-3.77.32h-10v11H45.8V55.66H56.7q5.94,0,9.29,2.79a9.55,9.55,0,0,1,3.36,7.79,10.07,10.07,0,0,1-2.07,6.47,10.53,10.53,0,0,1-5.84,3.56l8.37,11.59ZM56.79,76c3.75,0,6.62-.84,8.63-2.53a8.85,8.85,0,0,0,3-7.18,8.83,8.83,0,0,0-3-7.17c-2-1.69-4.88-2.53-8.63-2.53H46.72V76Z"/><path d="M89.87,85.89a15.52,15.52,0,0,1-5.94-5.82,17,17,0,0,1,0-16.61,15.52,15.52,0,0,1,5.94-5.82,16.9,16.9,0,0,1,8.42-2.11,17.62,17.62,0,0,1,6.09,1,13.11,13.11,0,0,1,4.85,3.06l-.55.64A14.45,14.45,0,0,0,98.29,56.4a15.89,15.89,0,0,0-7.94,2A14.8,14.8,0,0,0,84.74,64a15.85,15.85,0,0,0,0,15.59,14.78,14.78,0,0,0,5.61,5.54,15.79,15.79,0,0,0,7.94,2,14.42,14.42,0,0,0,10.39-3.91l.55.64a13.28,13.28,0,0,1-4.87,3.08A17.22,17.22,0,0,1,98.29,88,16.9,16.9,0,0,1,89.87,85.89Z"/><path d="M149.62,55.66v32.2h-.92V72H125.24V87.86h-.92V55.66h.92V71.07H148.7V55.66Z"/><path d="M168.3,55.66h.92v32.2h-.92Z"/><path d="M193.92,56.54H182v-.88H206.8v.88h-12V87.86h-.92Z"/><path d="M241,87v.87H219.54V55.66h20.75v.88H220.46V71.07h17.76V72H220.46V87Z"/><path d="M261.4,85.89a15.56,15.56,0,0,1-5.93-5.82,17,17,0,0,1,0-16.61,15.56,15.56,0,0,1,5.93-5.82,16.9,16.9,0,0,1,8.42-2.11,17.54,17.54,0,0,1,6.09,1,13.15,13.15,0,0,1,4.86,3.06l-.56.64a14.44,14.44,0,0,0-10.39-3.86,15.89,15.89,0,0,0-7.94,2A14.94,14.94,0,0,0,256.27,64a15.85,15.85,0,0,0,0,15.59,14.92,14.92,0,0,0,5.61,5.54,15.79,15.79,0,0,0,7.94,2,14.42,14.42,0,0,0,10.39-3.91l.56.64a13.32,13.32,0,0,1-4.88,3.08A17.22,17.22,0,0,1,269.82,88,16.9,16.9,0,0,1,261.4,85.89Z"/><path d="M301.88,56.54h-12v-.88h24.84v.88h-12V87.86h-.92Z"/><path d="M350.13,85.89a15.56,15.56,0,0,1-5.93-5.82,17,17,0,0,1,0-16.61,15.56,15.56,0,0,1,5.93-5.82,17.86,17.86,0,0,1,16.84,0,15.56,15.56,0,0,1,5.93,5.82,17,17,0,0,1,0,16.61A15.56,15.56,0,0,1,367,85.89a17.86,17.86,0,0,1-16.84,0Zm16.36-.76a14.87,14.87,0,0,0,5.61-5.52,16,16,0,0,0,0-15.69,14.87,14.87,0,0,0-5.61-5.52,16.74,16.74,0,0,0-15.87,0A14.72,14.72,0,0,0,345,63.92a16,16,0,0,0,0,15.69,14.72,14.72,0,0,0,5.61,5.52,16.74,16.74,0,0,0,15.87,0Z"/><path d="M391.26,56.54V72H409v.88H391.26v15h-.92V55.66h20.74v.88Z"/><path d="M426.63,56.54V72h17.76v.88H426.63v15h-.92V55.66h20.75v.88Z"/><path d="M461.09,55.66H462v32.2h-.92Z"/><path d="M485.37,85.89a15.56,15.56,0,0,1-5.93-5.82,17,17,0,0,1,0-16.61,15.56,15.56,0,0,1,5.93-5.82,16.92,16.92,0,0,1,8.42-2.11,17.64,17.64,0,0,1,6.1,1,13.19,13.19,0,0,1,4.85,3.06l-.55.64a14.48,14.48,0,0,0-10.4-3.86,15.85,15.85,0,0,0-7.93,2A14.9,14.9,0,0,0,480.24,64a15.91,15.91,0,0,0,0,15.59,14.87,14.87,0,0,0,5.62,5.54,15.76,15.76,0,0,0,7.93,2,14.44,14.44,0,0,0,10.4-3.91l.55.64a13.24,13.24,0,0,1-4.88,3.08A17.18,17.18,0,0,1,493.79,88,16.92,16.92,0,0,1,485.37,85.89Z"/><path d="M541.26,87v.87H519.83V55.66h20.74v.88H520.75V71.07H538.5V72H520.75V87Z"/></g></g></g></g></svg>