<svg xmlns="http://www.w3.org/2000/svg" width="541.97" height="138.86" viewBox="0 0 541.97 138.86"><g id="faf02b10-03b4-42a1-81b0-8049b4e559f7" data-name="Layer 2"><g id="aef15ca1-9fda-4ddd-a751-7b7151538a84" data-name="4"><g style="isolation:isolate"><g style="isolation:isolate"><path d="M.75,137.5v.88H.35V123.92H6a28.28,28.28,0,0,0,1.6-3.52l.4.12a29.39,29.39,0,0,1-1.6,3.4h8.14v14.46h-.4v-.88Zm13.39-7.16v-6H.75v6Zm0,6.78v-6.4H.75v6.4Z"/><path d="M14.89,138.73H13.78v-.87H1.11v.87H0V123.56H5.78a27.07,27.07,0,0,0,1.48-3.28l.12-.32,1.08.33-.13.35A28.21,28.21,0,0,1,7,123.56h7.9Zm-13.78-2H13.78v-5.7H1.11Zm0-6.79H13.78v-5.33H1.11Z"/><path d="M26.88,130l-.3.3c-.4-.78-1.1-2.06-1.79-3.14V138.4H24.4V126.76a30.66,30.66,0,0,1-3.15,7.56L21,134a28.22,28.22,0,0,0,3.4-8.62h-3.1V125H24.4v-4.6h.39V125H26.9v.38H24.79v1.1C25.58,127.66,26.42,129.12,26.88,130Zm1.06,3.66V122.22h.38A20.23,20.23,0,0,0,33,120.44l.22.34a20.84,20.84,0,0,1-4.84,1.82v10.92l3.24-1a5.62,5.62,0,0,0,0-.58v-8.1H32v8.12c0,2.78-1.08,4.88-4.38,6.46l-.24-.34c2.76-1.3,3.92-3,4.16-5.14-1.52.52-3.7,1.18-5,1.56l-.14-.4C26.84,134,27.36,133.8,27.94,133.64Zm10.56-12h.2v11.54c0,.48-.14.8-.64.88a15.93,15.93,0,0,1-2,0l0-.4c.62,0,1.52,0,1.78,0s.5-.22.5-.54V122.06H34.52v16.3h-.4V121.68H38.5Z"/><path d="M27.5,138.85l-.66-.93.38-.18c2.28-1.07,3.5-2.41,3.88-4.3-1.55.51-3.52,1.11-4.42,1.38l-.33.1L26,133.85l.57-.17,1-.31V121.86h.74a19.94,19.94,0,0,0,4.45-1.73l.3-.17.61.94-.33.18a21.13,21.13,0,0,1-4.66,1.8V133l.8-.25,1.75-.55v-8.78h1.11v8.48c0,3.17-1.41,5.26-4.58,6.78Zm-2.35-.09H24v-9.68a26.08,26.08,0,0,1-2.49,5.43l-.25.38-.8-.86.16-.23a27.73,27.73,0,0,0,3.25-8.07h-3v-1.09H24V120h1.11v4.6h2.1v1.09h-2.1v.64c.74,1.13,1.55,2.54,2,3.44l.12.23-.83.83-.22-.43c-.27-.52-.67-1.27-1.11-2Zm9.72,0H33.76v-17.4h5.29v11.9a1.07,1.07,0,0,1-.94,1.23,14.18,14.18,0,0,1-2.08,0H35.7l-.06-1.11.39,0c.61,0,1.51,0,1.77,0l.13,0h0a.61.61,0,0,0,0-.15V122.41H34.87Z"/><path d="M62,129v.4h-18V129Z"/><rect x="43.7" y="128.66" width="18.67" height="1.11"/><path d="M71.28,138.4h-.4V130l-4,.32-.12-.42,1.46-.1c.68-.84,1.36-1.72,2-2.6a20.36,20.36,0,0,0-3.18-3.58l.26-.28c.38.34.74.68,1.1,1.06a29.14,29.14,0,0,0,2.61-4l.38.2a36.35,36.35,0,0,1-2.71,4.12,25.92,25.92,0,0,1,1.81,2.16,51.07,51.07,0,0,0,3-4.6l.4.18a65.55,65.55,0,0,1-5.21,7.34c1.65-.12,3.63-.28,5.09-.42a18.35,18.35,0,0,0-1.86-2.3l.32-.24a17.77,17.77,0,0,1,2.84,3.94,3.48,3.48,0,0,0-.36.22,14.22,14.22,0,0,0-.7-1.26c-.82.08-1.8.18-2.8.26ZM69,131.66a18.88,18.88,0,0,1-1.64,5.2l-.4-.18a16.83,16.83,0,0,0,1.62-5.08Zm4.47-.14a18,18,0,0,1,1.24,3.72l-.4.12a17.72,17.72,0,0,0-1.22-3.7Zm10.38-4.88H84l.28.08a17.75,17.75,0,0,1-3.66,7.66A12.8,12.8,0,0,0,85,138l-.34.32a12.78,12.78,0,0,1-4.38-3.66,16.93,16.93,0,0,1-4.74,3.7l-.32-.32a16.37,16.37,0,0,0,4.8-3.72,21.74,21.74,0,0,1-3.38-7.8c-.22,5-.88,9-3.1,11.6l-.36-.24c2.94-3.32,3.12-9.2,3.14-16.26h-1.9v-.38h7.9l.22,0c-.48,1.56-1.26,3.72-1.84,5.32ZM80.6,127l-.24.62-.42-.08c.58-1.44,1.5-4,2.08-5.9H76.78c0,1.14,0,2.24-.06,3.32A22.68,22.68,0,0,0,80.34,134a16.48,16.48,0,0,0,3.42-7Z"/><path d="M75.51,138.84l-.85-.85.43-.22a16,16,0,0,0,4.51-3.44,20.88,20.88,0,0,1-2.7-5.63c-.28,3.72-1,7.28-3.06,9.69l-.2.24-1-.64.27-.3a8.65,8.65,0,0,0,1.28-1.95l-.23.07-.07-.38a17.31,17.31,0,0,0-1.2-3.62l-.16-.35,1.05-.39.14.3a20.17,20.17,0,0,1,1.06,2.93,19.36,19.36,0,0,0,.74-3.34l-.26.13-.33.2-.34.23-.17-.37c-.14-.29-.32-.62-.57-1l-.21,0-2.05.2v8.43H70.52v-8.34l-3.58.29-.29,0-.32-1.12.45,0,1-.07.26,0c.61-.77,1.2-1.53,1.74-2.27a20.69,20.69,0,0,0-3-3.31l-.27-.24.74-.8.26.23c.31.28.58.53.83.78a27.65,27.65,0,0,0,2.32-3.65l.16-.33,1,.54-.16.31a34.91,34.91,0,0,1-2.55,3.93c.44.49.89,1,1.33,1.59a49,49,0,0,0,2.74-4.18l.16-.28,1,.48-.2.34a65.75,65.75,0,0,1-4.72,6.75c1.22-.1,2.53-.2,3.65-.31a17.11,17.11,0,0,0-1.47-1.75l-.28-.29.89-.67.22.22a18.21,18.21,0,0,1,2.9,4l.12.25A68.61,68.61,0,0,0,76,122H74.1v-1.09l8.54,0L83,121l-.11.38c-.45,1.45-1.15,3.41-1.68,4.86l2.84,0,.59.17-.07.32a18,18,0,0,1-3.55,7.59,12.33,12.33,0,0,0,4.15,3.34l.44.22-.35.35-.17.16-.17.16-.18.18-.23-.11a13.18,13.18,0,0,1-4.24-3.43,17.23,17.23,0,0,1-4.56,3.46ZM77.13,122v.76c0,.75,0,1.49-.05,2.22a22.88,22.88,0,0,0,3.29,8.46,16,16,0,0,0,3-6.08H80.84l-.26.67-1.13-.21.16-.4c.5-1.25,1.33-3.54,1.93-5.42ZM67.5,137.32l-1-.47.17-.33a16.21,16.21,0,0,0,1.58-5l0-.35,1.13.16-.06.36a19,19,0,0,1-1.67,5.3Z"/><path d="M92.68,133.68a21,21,0,0,0,1.72-5.76H90.67l-.44.66-.38-.14c1.14-1.62,3.07-4.52,4.29-6.58H89.79v-.38h4.79l.22.06c-1,1.76-2.64,4.2-3.87,6h3.65l.28.08a23.22,23.22,0,0,1-1.92,6.4c2,2.52,4.68,3.4,8.28,3.46,1.06,0,5.48,0,6.5,0l0,.42c-1.06,0-5.4,0-6.54,0-3.68,0-6.36-1-8.42-3.5a14.13,14.13,0,0,1-2.95,4l-.32-.26a13.35,13.35,0,0,0,3-4.06,17,17,0,0,1-2.21-4.14l.36-.12A15.92,15.92,0,0,0,92.68,133.68Zm8.2-.18v-2.38h-5.1v-.38h5.1v-2.32h-5V128h5v-2.46H94.6v-.38h6.28v-2.36h-5v-.38h5V120.4h.4v2.06h4.5v2.74h1.86v.38h-1.86v2.84h-4.5v2.32h5.22v.38h-5.22v2.38h6.36v.38h-6.36v2.92h-.4v-2.92H94.6v-.38Zm4.5-8.3v-2.36h-4.1v2.36Zm-4.1.38V128h4.1v-2.46Z"/><path d="M89.81,138.85l-.88-.72.31-.27a12.87,12.87,0,0,0,2.82-3.76,18.27,18.27,0,0,1-2.12-4l-.13-.35,1-.34.12.31a16.37,16.37,0,0,0,1.64,3.3,20.93,20.93,0,0,0,1.37-4.7H90.86l-.48.74-1.08-.4.26-.37c1.08-1.53,2.75-4.06,4-6H89.44v-1.09l5.23,0,.67.18-.24.4c-1.1,1.87-2.68,4.25-3.5,5.46l3.07,0,.58.16,0,.31a23.89,23.89,0,0,1-1.86,6.3c1.69,2,3.87,3,7.17,3.13v-2.87H94.24v-1.08h6.28v-1.68h-5.1v-1.09h5.1v-1.61h-5v-1.09h5v-1.75H94.24v-1.09h6.28v-1.65h-5V122.1h5V120h1.11v2.06h4.5v2.74H108v1.09h-1.86v2.84h-4.5v1.61h5.22v1.09h-5.22v1.68H108v1.08h-6.36v2.9c1.49,0,5.16,0,6.07,0l.39,0,0,1.14h-.33c-1.06,0-5.4,0-6.56,0-3.77,0-6.37-1-8.34-3.23A14.42,14.42,0,0,1,90,138.64Zm11.82-11.17H105v-1.75h-3.39Zm0-2.84H105v-1.65h-3.39Z"/><path d="M119.18,124.54l-.4.16a10.57,10.57,0,0,0-1.4-2.4h-2.21a13.62,13.62,0,0,1-2.44,2.7,1.81,1.81,0,0,0-.32-.22,11,11,0,0,0,3.34-4.36l.39.08a11.83,11.83,0,0,1-.72,1.42h6v.38h-3.6A11,11,0,0,1,119.18,124.54Zm11.36,13.16c-.1.1-.2.2-.3.32-3.14-.88-6.66-2.58-8.56-4.88h-.08v5.24h-.4v-5.24h-.06c-1.86,2.3-5.37,4-8.43,5-.1-.12-.2-.24-.3-.34,3-.82,6.39-2.52,8.25-4.64h-8v-.38h8.59v-2.14h.4v2.14h8.7v.38h-8.12C124.06,135.26,127.52,136.9,130.54,137.7ZM116,129.6v-3.88h-3v-.38h6.37v.38h-3v3.78c1.08-.32,2.18-.62,3-.88l0,.38c-1.92.58-4.93,1.44-6.59,1.9l-.14-.42ZM127,124.92h.2v4.66c0,.54.1.66.6.68h1.54c.52,0,.56-.1.58-2.2l.38.1c-.08,2.32-.18,2.48-.88,2.5H127.7c-.7,0-.94-.24-.94-1.08V125.3h-5.24v2c0,1.6-1,3-3.12,4.2l-.34-.28c2.1-1.12,3.06-2.48,3.06-3.94v-2.38H127Zm.82-.44-.38.18a16.72,16.72,0,0,0-1.62-2.36h-2.64a12.49,12.49,0,0,1-2,2.34l-.34-.2a10.27,10.27,0,0,0,2.92-4l.38.08a8.5,8.5,0,0,1-.7,1.42h7.08v.38h-4.2A15,15,0,0,1,127.78,124.48Zm-4.94,2a11.38,11.38,0,0,1,2.72,2.6l-.34.24a10.83,10.83,0,0,0-2.64-2.58Z"/><path d="M122,138.73h-1.11V134a19.69,19.69,0,0,1-8,4.46l-.23.07-.15-.18a2.92,2.92,0,0,0-.28-.32l-.43-.43.59-.16a18.82,18.82,0,0,0,7.5-3.95h-7.56V132.4h8.58v-2.14H122v2.14h8.7v1.09H123a19.05,19.05,0,0,0,7.61,3.87l.6.16-.44.43c-.09.09-.19.19-.28.3l-.15.17-.22-.06A19.08,19.08,0,0,1,122,134ZM118.36,132l-.94-.77.47-.25c1.91-1,2.87-2.24,2.87-3.63v-2.46l-.59-.35.37-.32a9.93,9.93,0,0,0,2.83-3.88l.1-.28,1.08.22-.14.39a7.84,7.84,0,0,1-.43.94h6.83v1.09H127a14,14,0,0,1,1.1,1.66l.18.33-.76.36v4.58a.81.81,0,0,0,0,.31l.23,0h1.67a10.74,10.74,0,0,0,.08-1.84v-.45l1.09.29v.28c-.07,2.23-.14,2.81-1.22,2.84H127.7c-.94,0-1.3-.42-1.3-1.43v-3.93h-4.53v1.67c0,1.74-1.11,3.26-3.3,4.51Zm3.35-7.39h5.23a17,17,0,0,0-1.33-1.91h-2.28A12.74,12.74,0,0,1,121.71,124.56Zm-9,6.77-.37-1.1.36-.09,3-.81v-3.26h-2.94v-.63l-.21-.17a1.7,1.7,0,0,0-.26-.18l-.48-.24.42-.35a10.81,10.81,0,0,0,3.24-4.21l.1-.28,1.1.23-.17.39a9.9,9.9,0,0,1-.44.93h5.77v1.09h-3.27a9.76,9.76,0,0,1,1,1.75l.14.33L119,125h.78v1.09h-3v3l1-.31c.56-.15,1.08-.3,1.53-.44l.41-.12.12,1.09-.28.09c-1.91.57-4.91,1.43-6.59,1.9Zm.6-6.35h5.22l-.06-.15a10.38,10.38,0,0,0-1.25-2.18h-1.84A13.77,13.77,0,0,1,113.29,125Zm11.84,4.88-.21-.3a10.45,10.45,0,0,0-2.55-2.49l-.34-.25.77-.77.24.18a11.76,11.76,0,0,1,2.81,2.69l.2.29Z"/><path d="M142.92,123.88v.38h-7.67v-.38Zm-6.35,8.06H142v5.38h-5.45v1h-.4v-6.42h.4Zm5.35-5.36V127h-5.65v-.38Zm0,2.68v.38h-5.65v-.38Zm-.22-8v.38h-5.21v-.38Zm-.08,15.7v-4.62h-5.05v4.62Zm6.32-2.16a12.16,12.16,0,0,0,3.58-5.36h-8.34V129h8.58l.32.12a12.82,12.82,0,0,1-3.82,5.9,13.89,13.89,0,0,0,5.12,2.92l-.34.38a14.84,14.84,0,0,1-5.12-3,18,18,0,0,1-5.24,3l-.34-.36a17.85,17.85,0,0,0,5.28-3,13.93,13.93,0,0,1-3.32-5.12l.4-.16A13.37,13.37,0,0,0,147.94,134.78Zm2.3-13.84h.16v5.24c0,.56.1.66.58.68h1.46c.48,0,.54-.08.56-2.14l.36.1c-.08,2.28-.16,2.44-.86,2.46h-1.6c-.66,0-.9-.26-.9-1.1v-4.86h-4.9V124a5.12,5.12,0,0,1-2.46,4.28l-.28-.3a4.75,4.75,0,0,0,2.34-4v-3h5.54Z"/><path d="M142.58,138.82l-.87-.93.5-.18.09,0h-5.37v1h-1.11v-7.14h6.55v6.07a17.28,17.28,0,0,0,4.72-2.62,14.49,14.49,0,0,1-3.13-5l-.11-.29h-1v-1.09l9.06,0,.63.23-.09.32a13.15,13.15,0,0,1-3.64,5.8,13.85,13.85,0,0,0,4.71,2.58l.51.17-.85,1-.23-.07a15.42,15.42,0,0,1-5-2.87,18.49,18.49,0,0,1-5.11,2.9Zm-5.65-2.23h4.33v-3.92h-4.33Zm8.14-6.82a13,13,0,0,0,2.88,4.52,11.82,11.82,0,0,0,3.07-4.52Zm-2.8.22h-6.35V128.9h6.35Zm.32-1.26-.77-.83.33-.23a4.4,4.4,0,0,0,2.19-3.71v-3.38h6.41v5.6a.86.86,0,0,0,0,.31h1.78a10.76,10.76,0,0,0,.08-1.78v-.46l1.07.3v.28c-.07,2.07-.1,2.77-1.2,2.8H150.9c-.9,0-1.26-.45-1.26-1.45v-4.51h-4.19V124a5.45,5.45,0,0,1-2.61,4.57Zm-.32-1.42h-6.35v-1.09h6.35Zm1-2.7H134.9v-1.09h8.37ZM142.05,122h-5.91v-1.09h5.91Z"/><path d="M166,123.88v.38h-8v-.38Zm-6.61,8.06h5.71v5.38h-5.71v1H159v-6.42h.4Zm5.63-5.36V127h-5.93v-.38Zm0,2.68v.38h-5.93v-.38Zm-.2-8v.38h-5.51v-.38Zm-.12,15.7v-4.62h-5.31v4.62Zm6.44-9.8V120.4h.4v6.74H176v.38h-4.48V138.4h-.4V127.52h-4.82v-.38Z"/><path d="M171.91,138.76H170.8V127.87H166v-1.09h4.82V120h1.11v6.74h4.48v1.09h-4.48Zm-12.14,0h-1.11v-7.14h6.81v6.1h-5.7Zm0-2.13h4.59v-3.92h-4.59Zm5.62-6.6h-6.63V128.9h6.63Zm0-2.68h-6.63v-1.09h6.63Zm1-2.7H157.7v-1.09h8.67ZM165.19,122H159v-1.09h6.21Z"/><path d="M189.6,131.82V129.6h-7.13v-.38h7.13v-1.7h-6.39v-3.2h6.39v-1.68h-8.73v-.38h8.73V120.4h.4v1.86h8.84v.38H190v1.68h6.54v3.2H190v1.7h6.74v2.6h2.1v.38h-2.1v2.74H190V137c0,.72-.18,1.2-1,1.32a24.9,24.9,0,0,1-2.76,0l0-.4c.9,0,2.14,0,2.54,0,.7-.06.84-.4.84-1v-2.08h-7.13v-.4h7.13V132.2h-8.73v-.38Zm-6-4.68h6V124.7h-6Zm12.51,0V124.7H190v2.44Zm.2,4.68V129.6H190v2.22Zm-6.32.38v2.34h6.32V132.2Z"/><path d="M188,138.75c-.68,0-1.43,0-1.73,0h-.32l-.06-1.11.39,0c.89,0,2.11,0,2.51,0s.5-.16.5-.61v-1.73h-7.12v-1.1h7.12v-1.64h-8.72v-1.08h8.72V130h-7.12v-1.09h7.12v-1h-6.38V124h6.38v-1h-8.72V121.9h8.72V120h1.11v1.86h8.84V123h-8.84v1h6.54v3.91h-6.54v1h6.74v2.61h2.1v1.08h-2.1v2.74h-6.74V137a1.44,1.44,0,0,1-1.3,1.67C188.79,138.74,188.38,138.75,188,138.75Zm2.4-4.56H196v-1.64h-5.61Zm0-2.72H196V130h-5.61Zm0-4.69h5.41v-1.73h-5.41Zm-6.38,0h5.27v-1.73H184Z"/><path d="M207.6,138.36a19.41,19.41,0,0,1-2.23,0l0-.42c.68,0,1.71,0,2,0s.54-.22.54-.56V128a22.49,22.49,0,0,1-4.41,7.94l-.34-.3a21.81,21.81,0,0,0,4.64-8.56h-4.12v-.38h5.11a18.3,18.3,0,0,0-3.19-3.14l.26-.28c.78.64,1.48,1.26,2.09,1.86a24,24,0,0,0,3-3.6h-6.37v-.38h6.79l.24.14a29.76,29.76,0,0,1-3.43,4.14,11.46,11.46,0,0,1,1,1.2l-.08.06h2.72l.22,0a25,25,0,0,1-2.22,4l-.38-.12a23.7,23.7,0,0,0,2-3.56h-3.23v10.4C208.27,137.94,208.14,138.28,207.6,138.36Zm8.5-6.66h4.58c-.32,4.2-.7,6.2-1.24,6.52a1.12,1.12,0,0,1-.66.18c-.46,0-1.42,0-2,0V138c.56,0,1.52.06,2,0a.76.76,0,0,0,.44-.1c.42-.28.76-2,1.06-5.82H216a8.42,8.42,0,0,1-5,6.32l-.28-.3a8.14,8.14,0,0,0,4.86-6h-4.16v-.38h4.26a23.82,23.82,0,0,0,.36-2.74l.4,0A22.9,22.9,0,0,1,216.1,131.7Zm1-4.22a12.5,12.5,0,0,0,5,2.52l-.28.34a13.14,13.14,0,0,1-5-2.6,15.58,15.58,0,0,1-5.18,2.64l-.26-.3a15.3,15.3,0,0,0,5.18-2.56,11.53,11.53,0,0,1-2.86-4.08,14.6,14.6,0,0,1-1.76,2.52l-.34-.22a13.33,13.33,0,0,0,3-5.34l.38.08a13.65,13.65,0,0,1-.84,2.18h7.6V123h-1.84A9.48,9.48,0,0,1,217.06,127.48Zm2.36-4.44h-5.54a10.94,10.94,0,0,0,2.92,4.22A9.12,9.12,0,0,0,219.42,123Z"/><path d="M210.93,138.83l-.79-.85.45-.2a7.71,7.71,0,0,0,4.55-5.35h-4.06v-1.08h4.32a23.11,23.11,0,0,0,.3-2.42h0a18.84,18.84,0,0,1-4,1.79l-.23.07-.7-.81c-.2.32-.41.64-.61.94l-.15.22-1.09-.35.27-.39a23.48,23.48,0,0,0,1.76-3h-2.31v10a1.12,1.12,0,0,1-1,1.27,17.88,17.88,0,0,1-2.28,0H205l-.06-1.15.4,0c.68,0,1.69,0,1.93,0s.21,0,.21-.21v-7.48a20.85,20.85,0,0,1-3.79,6.2l-.23.25-.88-.77.26-.27a21.25,21.25,0,0,0,4.42-8h-4V126.3H208a19.07,19.07,0,0,0-2.66-2.5l-.3-.24.75-.81.26.21c.72.59,1.33,1.13,1.86,1.64a24.1,24.1,0,0,0,2.35-2.75h-6v-1.09h7.23l.65.38-.21.31a29.46,29.46,0,0,1-3.23,4,11.39,11.39,0,0,1,.76.9h2.32l-.77-.49.28-.31a12.91,12.91,0,0,0,2.9-5.2l.09-.32,1.08.23-.1.37a14.72,14.72,0,0,1-.63,1.72H222v1.09h-1.93a9.87,9.87,0,0,1-2.48,4.07,12.19,12.19,0,0,0,4.53,2.2l.54.13-.78,1-.23-.06a13.71,13.71,0,0,1-4.91-2.48l-.56.41.65,0,0,.37c-.06.71-.14,1.53-.28,2.34h4.53l0,.38c-.39,5.2-.83,6.45-1.41,6.8a1.51,1.51,0,0,1-.84.23c-.4,0-1.14,0-1.74,0l-.62,0v-1.12l.38,0c.55,0,1.51.06,1.92,0,.18,0,.23,0,.26,0s.52-.86.87-5.18H216.3a8.72,8.72,0,0,1-5.14,6.29Zm1.09-12.5.55.1-.17.41a24.48,24.48,0,0,1-1.57,3l.38-.12a15.59,15.59,0,0,0,4.75-2.25,11.68,11.68,0,0,1-2.36-3.28,15.33,15.33,0,0,1-1.46,2Zm2.39-2.94a10.47,10.47,0,0,0,2.39,3.39,8.8,8.8,0,0,0,2.13-3.39Z"/><path d="M228,124.84h6.15v5.54H228v.22a16.47,16.47,0,0,1-1.56,7.72l-.34-.26a15.78,15.78,0,0,0,1.5-7.46v-5.76h.4Zm7.43-3.42v.38h-9v-.38Zm-1.7,8.58v-4.78H228V130Zm7.62,8.38H241V127.22h-4.56v2.62a10.52,10.52,0,0,1-3.66,8.54l-.34-.28a10.1,10.1,0,0,0,3.6-8.28v-7.26h.34a29,29,0,0,0,7.12-2.16l.28.34a33,33,0,0,1-7.34,2.22v3.88h8v.38h-3.08Z"/><path d="M226.59,138.86l-.91-.7.14-.27a15.31,15.31,0,0,0,1.46-7.29v-6.12h7.25v6.25h-6.14a16.64,16.64,0,0,1-1.6,7.76Zm1.8-9.22h5v-4.07h-5Zm4.37,9.2-.9-.74.33-.27a9.75,9.75,0,0,0,3.47-8V122.2h.7a28.44,28.44,0,0,0,6.95-2.12l.26-.13.75.91-.41.2a34.5,34.5,0,0,1-7.14,2.2v3.22h8v1.09h-3.08v11.16h-1.11V127.57h-3.85v2.27a10.81,10.81,0,0,1-3.79,8.81Zm3.05-16.69h-9.69v-1.09h9.69Z"/></g></g><g style="isolation:isolate"><g style="isolation:isolate"><path d="M3.56,29.26l2.07-4.65a17.86,17.86,0,0,0,10.63,3.55c5,0,7.13-1.8,7.13-4.19C23.39,17,4.25,21.58,4.25,9.62c0-5.2,4.14-9.62,13-9.62A20.33,20.33,0,0,1,27.94,2.85L26.06,7.5A17.94,17.94,0,0,0,17.18,5c-5,0-7,1.93-7,4.37,0,6.85,19.1,2.39,19.1,14.21,0,5.16-4.19,9.57-13,9.57C11.24,33.12,6.23,31.56,3.56,29.26Z"/><path d="M70.26.46v32.2h-6V18.86H47.63v13.8h-6V.46h6v13.3H64.28V.46Z"/><path d="M85.35.46h6v32.2h-6Z"/><path d="M127.53,32.66,121,23.23a10.29,10.29,0,0,1-1.24.05h-7.27v9.38h-6V.46h13.25c8.47,0,13.71,4.33,13.71,11.46a10.28,10.28,0,0,1-6.86,10.16L134,32.66Zm-8.1-27.14h-7V18.36h7c5.25,0,8-2.4,8-6.44S124.68,5.52,119.43,5.52Z"/><path d="M167.41,25.21h-16.1l-3.17,7.45H142L156.46.46h5.89l14.54,32.2h-6.26Zm-2-4.69L159.36,6.44l-6,14.08Z"/><path d="M201.31,21.3V32.66h-6V21.39L182.68.46h6.4l9.43,15.69L208,.46h5.89Z"/><path d="M245.15,25.21h-16.1l-3.17,7.45h-6.17L234.2.46h5.89l14.54,32.2h-6.26Zm-2-4.69L237.1,6.44l-6,14.08Z"/><path d="M293.77.46v32.2h-4.92l-17.76-21.8v21.8h-5.93V.46h4.92l17.76,21.81V.46Z"/><path d="M329.75,25.21h-16.1l-3.18,7.45h-6.16L318.8.46h5.89l14.53,32.2H333Zm-2-4.69L321.7,6.44l-6,14.08Z"/><path d="M371.74,16.19h5.66V29a20.41,20.41,0,0,1-12.6,4.09c-10,0-17.35-6.94-17.35-16.56S354.81,0,364.89,0c5.38,0,9.89,1.79,12.93,5.25L374,8.93a11.93,11.93,0,0,0-8.87-3.68c-6.86,0-11.69,4.64-11.69,11.31s4.83,11.32,11.64,11.32a13,13,0,0,0,6.62-1.66Z"/><path d="M391.7.46h6v32.2h-6Z"/></g><g style="isolation:isolate"><path d="M27.62,78.16H7.93l-4.51,9.7H2.36l15-32.2h.92l15,32.2H32.12Zm-.42-.88L17.77,56.91,8.34,77.28Z"/><path d="M33.74,88.22H31.9l-4.51-9.71H8.16L3.65,88.22H1.81L17.09,55.31h1.37Zm-1.39-.71h.28L18,56h-.47L2.92,87.51H3.2L7.7,77.8H27.84Zm-4.59-9.87h-20l10-21.58ZM8.9,76.93H26.65L17.77,57.75Z"/><path d="M69,87.86,60.83,76.5a19.07,19.07,0,0,1-3.77.32h-10v11h-.92V55.66H57.06q5.92,0,9.29,2.79a9.55,9.55,0,0,1,3.36,7.79,10.07,10.07,0,0,1-2.07,6.47,10.53,10.53,0,0,1-5.85,3.56l8.38,11.59ZM57.15,76q5.61,0,8.62-2.53a8.86,8.86,0,0,0,3-7.18,8.84,8.84,0,0,0-3-7.17q-3-2.53-8.62-2.53H47.07V76Z"/><path d="M70.86,88.22h-2L60.67,76.89a20.29,20.29,0,0,1-3.61.29H47.43v11H45.8V55.31H57.06c4,0,7.22,1,9.51,2.86a9.94,9.94,0,0,1,3.49,8.07,10.42,10.42,0,0,1-2.15,6.69,10.67,10.67,0,0,1-5.53,3.55Zm-1.66-.71h.27L61.2,76.06l.51-.13a10.24,10.24,0,0,0,5.65-3.44,9.77,9.77,0,0,0,2-6.25,9.25,9.25,0,0,0-3.23-7.52C64,56.93,60.91,56,57.06,56H46.51V87.51h.21v-11H57.06a19.09,19.09,0,0,0,3.7-.32l.22,0ZM57.15,76.3H46.72V56.18H57.15c3.81,0,6.79.88,8.85,2.62a9.22,9.22,0,0,1,3.14,7.44A9.23,9.23,0,0,1,66,73.69C63.94,75.43,61,76.3,57.15,76.3Zm-9.72-.7h9.72c3.64,0,6.46-.83,8.4-2.45a8.57,8.57,0,0,0,2.88-6.91,8.56,8.56,0,0,0-2.88-6.9c-1.94-1.62-4.76-2.45-8.4-2.45H47.43Z"/><path d="M90.22,85.89a15.56,15.56,0,0,1-5.93-5.82,17,17,0,0,1,0-16.61,15.56,15.56,0,0,1,5.93-5.82,16.92,16.92,0,0,1,8.42-2.11,17.64,17.64,0,0,1,6.1,1,13.19,13.19,0,0,1,4.85,3.06l-.55.64a14.48,14.48,0,0,0-10.4-3.86,15.85,15.85,0,0,0-7.93,2A14.9,14.9,0,0,0,85.09,64a15.91,15.91,0,0,0,0,15.59,14.87,14.87,0,0,0,5.62,5.54,15.76,15.76,0,0,0,7.93,2A14.44,14.44,0,0,0,109,83.22l.55.64a13.32,13.32,0,0,1-4.88,3.08A17.18,17.18,0,0,1,98.64,88,16.92,16.92,0,0,1,90.22,85.89Z"/><path d="M98.64,88.36a17.37,17.37,0,0,1-8.59-2.16h0a16.06,16.06,0,0,1-6.07-6,17.39,17.39,0,0,1,0-17,16.06,16.06,0,0,1,6.07-6,17.39,17.39,0,0,1,8.59-2.16,18.09,18.09,0,0,1,6.22,1.06,13.54,13.54,0,0,1,5,3.14l.23.23-1,1.18-.27-.26a14.16,14.16,0,0,0-10.15-3.77,15.52,15.52,0,0,0-7.76,2,14.62,14.62,0,0,0-5.48,5.42,15.5,15.5,0,0,0,0,15.23,14.69,14.69,0,0,0,5.48,5.42,15.52,15.52,0,0,0,7.76,2A14.16,14.16,0,0,0,108.79,83l.27-.26,1,1.18-.23.23a13.74,13.74,0,0,1-5,3.17A17.82,17.82,0,0,1,98.64,88.36ZM90.4,85.58a16.64,16.64,0,0,0,8.24,2.07,17,17,0,0,0,6-1,13,13,0,0,0,4.51-2.77l-.09-.11a14.92,14.92,0,0,1-10.37,3.75,16.15,16.15,0,0,1-8.11-2.07,15.24,15.24,0,0,1-5.74-5.67,16.19,16.19,0,0,1,0-15.95,15.24,15.24,0,0,1,5.74-5.67,16.15,16.15,0,0,1,8.11-2.07A14.92,14.92,0,0,1,109,59.75l.09-.11a13,13,0,0,0-4.49-2.75,17.32,17.32,0,0,0-6-1A16.66,16.66,0,0,0,90.4,58a15.34,15.34,0,0,0-5.81,5.69,16.7,16.7,0,0,0,0,16.25,15.41,15.41,0,0,0,5.81,5.69Z"/><path d="M150,55.66v32.2h-.92V72H125.6V87.86h-.92V55.66h.92V71.07h23.46V55.66Z"/><path d="M150.33,88.22H148.7V72.3H126V88.22h-1.63V55.31H126V70.72H148.7V55.31h1.63Zm-.92-.71h.21V56h-.21V71.43H125.24V56H125V87.51h.21V71.59h24.17Z"/><path d="M168.65,55.66h.92v32.2h-.92Z"/><path d="M169.93,88.22H168.3V55.31h1.63Zm-.92-.71h.21V56H169Z"/><path d="M194.27,56.54h-12v-.88h24.84v.88h-12V87.86h-.92Z"/><path d="M195.55,88.22h-1.63V56.89H182V55.31h25.55v1.58h-12Zm-.92-.71h.21V56.18h12V56H182.67v.16h12Z"/><path d="M241.33,87v.87H219.9V55.66h20.74v.88H220.81V71.07h17.76V72H220.81V87Z"/><path d="M241.69,88.22H219.54V55.31H241v1.58H221.17V70.72h17.76V72.3H221.17V86.64h20.52Zm-21.44-.71H241v-.17H220.46V71.59h17.76v-.16H220.46V56.18h19.83V56h-20Z"/><path d="M261.76,85.89a15.52,15.52,0,0,1-5.94-5.82,17,17,0,0,1,0-16.61,15.52,15.52,0,0,1,5.94-5.82,16.89,16.89,0,0,1,8.41-2.11,17.64,17.64,0,0,1,6.1,1,13.19,13.19,0,0,1,4.85,3.06l-.55.64a14.48,14.48,0,0,0-10.4-3.86,15.85,15.85,0,0,0-7.93,2A14.8,14.8,0,0,0,256.63,64a15.85,15.85,0,0,0,0,15.59,14.78,14.78,0,0,0,5.61,5.54,15.76,15.76,0,0,0,7.93,2,14.44,14.44,0,0,0,10.4-3.91l.55.64a13.24,13.24,0,0,1-4.88,3.08A17.18,17.18,0,0,1,270.17,88,16.89,16.89,0,0,1,261.76,85.89Z"/><path d="M270.17,88.36a17.39,17.39,0,0,1-8.59-2.16h0a16,16,0,0,1-6.06-6,17.33,17.33,0,0,1,0-17,16,16,0,0,1,6.06-6,17.39,17.39,0,0,1,8.59-2.16,18.05,18.05,0,0,1,6.22,1.06,13.54,13.54,0,0,1,5,3.14l.23.23-1,1.18-.28-.26a14.14,14.14,0,0,0-10.15-3.77,15.55,15.55,0,0,0-7.76,2,14.69,14.69,0,0,0-5.48,5.42,15.5,15.5,0,0,0,0,15.23,14.69,14.69,0,0,0,5.48,5.42,15.52,15.52,0,0,0,7.76,2A14.14,14.14,0,0,0,280.32,83l.27-.26,1,1.18-.23.23a13.79,13.79,0,0,1-5,3.17A17.92,17.92,0,0,1,270.17,88.36Zm0-32.48A16.66,16.66,0,0,0,261.93,58a15.24,15.24,0,0,0-5.8,5.69,16.63,16.63,0,0,0,0,16.25,15.31,15.31,0,0,0,5.8,5.69h0a16.66,16.66,0,0,0,8.24,2.07,17,17,0,0,0,5.95-1,13.09,13.09,0,0,0,4.52-2.77l-.1-.11a14.9,14.9,0,0,1-10.37,3.75,16.15,16.15,0,0,1-8.11-2.07,15.24,15.24,0,0,1-5.74-5.67,16.19,16.19,0,0,1,0-15.95,15.24,15.24,0,0,1,5.74-5.67,16.15,16.15,0,0,1,8.11-2.07,14.92,14.92,0,0,1,10.37,3.7l.1-.11a13.19,13.19,0,0,0-4.49-2.75A17.42,17.42,0,0,0,270.17,55.88Z"/><path d="M302.23,56.54h-12v-.88h24.85v.88h-12V87.86h-.93Z"/><path d="M303.51,88.22h-1.63V56.89h-12V55.31h25.55v1.58h-12Zm-.92-.71h.21V56.18h12V56H290.63v.16h12Z"/><path d="M350.49,85.89a15.49,15.49,0,0,1-5.93-5.82,17,17,0,0,1,0-16.61,15.49,15.49,0,0,1,5.93-5.82,17.86,17.86,0,0,1,16.84,0,15.56,15.56,0,0,1,5.93,5.82,17,17,0,0,1,0,16.61,15.56,15.56,0,0,1-5.93,5.82,17.86,17.86,0,0,1-16.84,0Zm16.35-.76a14.72,14.72,0,0,0,5.61-5.52,16,16,0,0,0,0-15.69,14.72,14.72,0,0,0-5.61-5.52,16.74,16.74,0,0,0-15.87,0,14.79,14.79,0,0,0-5.61,5.52,16,16,0,0,0,0,15.69A14.79,14.79,0,0,0,351,85.13a16.74,16.74,0,0,0,15.87,0Z"/><path d="M358.91,88.36a17.34,17.34,0,0,1-8.59-2.16h0a16.1,16.1,0,0,1-6.06-6,17.39,17.39,0,0,1,0-17,16.06,16.06,0,0,1,6.07-6,18.16,18.16,0,0,1,17.18,0,16,16,0,0,1,6.06,6,17.33,17.33,0,0,1,0,17,16,16,0,0,1-6.06,6A17.39,17.39,0,0,1,358.91,88.36Zm-8.25-2.78a17.46,17.46,0,0,0,16.49,0,15.31,15.31,0,0,0,5.8-5.69,16.63,16.63,0,0,0,0-16.25,15.24,15.24,0,0,0-5.8-5.69,17.46,17.46,0,0,0-16.49,0,15.31,15.31,0,0,0-5.8,5.69,16.7,16.7,0,0,0,0,16.25,15.38,15.38,0,0,0,5.8,5.69Zm8.25,1.9a16.42,16.42,0,0,1-8.11-2,15.14,15.14,0,0,1-5.75-5.65,16.45,16.45,0,0,1,0-16.05,15.14,15.14,0,0,1,5.75-5.65,17.14,17.14,0,0,1,16.22,0,15.12,15.12,0,0,1,5.74,5.65,16.38,16.38,0,0,1,0,16.05A15.12,15.12,0,0,1,367,85.44h0A16.44,16.44,0,0,1,358.91,87.48Zm0-30.73a15.62,15.62,0,0,0-7.76,2,14.4,14.4,0,0,0-5.48,5.39,15.69,15.69,0,0,0,0,15.33,14.4,14.4,0,0,0,5.48,5.39,16.42,16.42,0,0,0,15.52,0,14.47,14.47,0,0,0,5.48-5.39,15.69,15.69,0,0,0,0-15.33,14.47,14.47,0,0,0-5.48-5.39A15.64,15.64,0,0,0,358.91,56.75Z"/><path d="M391.61,56.54V72h17.76v.88H391.61v15h-.92V55.66h20.75v.88Z"/><path d="M392,88.22h-1.63V55.31h21.45v1.58H392V71.64h17.75v1.58H392Zm-.92-.71h.21v-15H409v-.16H391.26V56.18h19.82V56h-20Z"/><path d="M427,56.54V72h17.75v.88H427v15h-.92V55.66h20.74v.88Z"/><path d="M427.34,88.22h-1.63V55.31h21.46v1.58H427.34V71.64H445.1v1.58H427.34Zm-.92-.71h.21v-15h17.76v-.16H426.63V56.18h19.83V56h-20Z"/><path d="M461.44,55.66h.92v32.2h-.92Z"/><path d="M462.72,88.22h-1.63V55.31h1.63Zm-.92-.71H462V56h-.21Z"/><path d="M485.73,85.89a15.59,15.59,0,0,1-5.94-5.82,17,17,0,0,1,0-16.61,15.59,15.59,0,0,1,5.94-5.82,16.9,16.9,0,0,1,8.42-2.11,17.62,17.62,0,0,1,6.09,1,13.11,13.11,0,0,1,4.85,3.06l-.55.64a14.45,14.45,0,0,0-10.39-3.86,15.89,15.89,0,0,0-7.94,2A14.8,14.8,0,0,0,480.6,64a15.85,15.85,0,0,0,0,15.59,14.78,14.78,0,0,0,5.61,5.54,15.79,15.79,0,0,0,7.94,2,14.42,14.42,0,0,0,10.39-3.91l.55.64a13.28,13.28,0,0,1-4.87,3.08A17.22,17.22,0,0,1,494.15,88,16.9,16.9,0,0,1,485.73,85.89Z"/><path d="M494.15,88.36a17.34,17.34,0,0,1-8.59-2.16h0a16.1,16.1,0,0,1-6.06-6,17.39,17.39,0,0,1,0-17,16.06,16.06,0,0,1,6.07-6,17.34,17.34,0,0,1,8.59-2.16,18,18,0,0,1,6.21,1.06,13.46,13.46,0,0,1,5,3.14l.24.23-1,1.18-.27-.26a14.17,14.17,0,0,0-10.15-3.77,15.52,15.52,0,0,0-7.76,2,14.55,14.55,0,0,0-5.48,5.42,15.5,15.5,0,0,0,0,15.23,14.62,14.62,0,0,0,5.48,5.42,15.52,15.52,0,0,0,7.76,2A14.17,14.17,0,0,0,504.3,83l.27-.26,1,1.18-.23.23a13.83,13.83,0,0,1-5,3.17A17.86,17.86,0,0,1,494.15,88.36Zm-8.25-2.78a16.67,16.67,0,0,0,8.25,2.07,17,17,0,0,0,6-1,13,13,0,0,0,4.51-2.77l-.1-.11a14.89,14.89,0,0,1-10.36,3.75A16.1,16.1,0,0,1,486,85.41a15.2,15.2,0,0,1-5.75-5.67,16.26,16.26,0,0,1,0-15.95A15.2,15.2,0,0,1,486,58.12a16.12,16.12,0,0,1,8.11-2.07,14.89,14.89,0,0,1,10.36,3.7l.1-.11a13,13,0,0,0-4.49-2.75,17.4,17.4,0,0,0-6-1A16.7,16.7,0,0,0,485.9,58a15.31,15.31,0,0,0-5.8,5.69,16.7,16.7,0,0,0,0,16.25,15.31,15.31,0,0,0,5.8,5.69Z"/><path d="M541.62,87v.87H520.18V55.66h20.75v.88H521.1V71.07h17.76V72H521.1V87Z"/><path d="M542,88.22H519.83V55.31h21.45v1.58H521.46V70.72h17.75V72.3H521.46V86.64H542Zm-21.43-.71h20.72v-.17H520.75V71.59H538.5v-.16H520.75V56.18h19.82V56h-20Z"/></g></g></g></g></svg>